<svg height="48" viewBox="0 0 512 512" width="48" xmlns="http://www.w3.org/2000/svg"><path d="M508.662 257.73c-7.712-8.374-17.751-14.315-28.908-18.126-11.058-3.722-23.423-5.396-36.424-5.396-7.068 0-14.405.466-21.848 1.486 1.86-10.683 2.881-21.742 2.881-32.891 0-19.799-3.15-40.064-10.316-60.231l-2.415-6.774-7.158.555c-30.295 2.595-58.82 12.634-84.104 27.602-12.364-26.769-39.46-59.864-64.36-73.894-24.909 14.03-52.014 47.124-64.378 73.894-25.283-14.968-53.808-25.007-84.103-27.602l-7.158-.555-2.416 6.774c-7.158 20.167-10.316 40.432-10.316 60.231 0 11.149 1.02 22.208 2.881 32.891a161.224 161.224 0 00-21.84-1.486c-13.009 0-25.374 1.673-36.432 5.396-11.157 3.811-21.196 9.752-28.908 18.126L0 261.346l1.117 4.84c13.565 58.918 41.632 98.688 78.898 122.854 37.265 24.248 82.806 32.898 131.595 32.898 12.92 0 26.117-.652 39.403-1.771.343.082 4.612.058 4.995.082.358-.024 4.636 0 4.978-.082 13.286 1.118 26.484 1.771 39.403 1.771 48.798 0 94.33-8.65 131.604-32.898 37.257-24.166 65.324-63.937 78.888-122.854l1.118-4.84zm-166.175 3.804c-.93-27.325-5.754-55.025-14.96-80.211 21.75-13.189 45.908-22.296 71.372-25.554 4.742 15.8 6.88 31.512 6.88 47.034 0 12.356-1.396 24.526-3.812 36.424-1.485 6.97-3.346 13.851-5.484 20.633-5.672 17.465-13.565 34.205-22.95 49.442-14.217 23.236-31.691 43.206-48.977 58.085 10.782-23.978 16.821-53.718 17.841-84.756a200.3 200.3 0 00.278-10.594c0-3.435-.091-6.97-.188-10.503zM113.101 155.769c25.463 3.257 49.622 12.365 71.372 25.554-9.206 25.186-14.029 52.886-14.96 80.211-.098 3.533-.188 7.068-.188 10.503 0 3.534.09 7.06.278 10.594 1.02 31.038 7.06 60.778 17.849 84.756-17.294-14.878-34.767-34.849-48.985-58.085-9.385-15.237-17.278-31.977-22.95-49.442-2.138-6.782-3.999-13.663-5.484-20.633-2.416-11.899-3.812-24.068-3.812-36.424 0-15.522 2.139-31.233 6.88-47.034zm-22.95 217.65c-31.887-20.804-56.42-53.898-69.708-106.401 4.832-4.179 10.774-7.443 17.744-9.76 8.741-2.971 19.065-4.456 30.491-4.456 8.276 0 17.098.742 26.207 2.415 9.663 36.156 28.434 68.768 49.908 94.967 15.89 19.244 33.168 35.046 50.086 46.202 3.901 2.596 7.811 4.922 11.622 6.881-44.61-.565-84.569-9.028-116.35-29.848zm194.161 18.779c-.277.18-.555.466-.832.654-5.762 4.366-11.899 7.149-18.592 8.358-.457.098-.832.098-1.298.196h-.367c-.376.089-.841.089-1.306.18h-.098c-.628.048-5.158.082-5.811.114-.654-.032-5.191-.066-5.828-.114h-.089c-.474-.09-.939-.09-1.315-.18h-.367c-.466-.098-.832-.098-1.298-.196-6.692-1.208-12.822-3.992-18.592-8.358-.278-.188-.547-.474-.832-.654-11.899-9.385-22.118-26.108-29.088-47.303-4.929-14.87-8.178-31.879-9.663-49.818-.653-7.524-1.029-15.148-1.029-22.949v-.09c0-27.137 4.098-55.016 12.455-80.023a209.188 209.188 0 014.464-12.079c.833-1.951 1.673-3.901 2.604-5.852 10.308-23.137 29.609-47.964 48.577-60.134 18.95 12.169 38.252 36.996 48.56 60.134.93 1.951 1.771 3.901 2.603 5.852 1.584 3.901 3.069 7.9 4.464 12.079 8.357 25.007 12.455 52.886 12.455 80.023v.09c0 7.802-.376 15.425-1.029 22.949-1.485 17.939-4.733 34.948-9.662 49.818-6.968 21.195-17.187 37.918-29.086 47.303zm137.537-18.779c-31.78 20.82-71.74 29.283-116.35 29.847 3.82-1.959 7.721-4.285 11.622-6.881 16.919-11.156 34.197-26.957 50.086-46.202 21.474-26.199 40.245-58.812 49.908-94.967 9.108-1.673 17.93-2.415 26.214-2.415 11.426 0 21.742 1.485 30.483 4.456 6.97 2.317 12.911 5.582 17.743 9.76-13.286 52.504-37.82 85.598-69.706 106.402z" fill="#1e50a2"/></svg>