<svg version="1.1" id="_x32_" xmlns="http://www.w3.org/2000/svg" x="0" y="0" viewBox="0 0 512 512" style="width:48px;height:48px" xml:space="preserve" opacity="1"><style>.st0{fill:#4b4b4b}</style><path class="st0" d="M500.789 325.626v-12.478c.168-3.225.84-7.156 1.847-11.472 1.512-6.592 3.771-14.05 5.72-21.75.974-3.872 1.872-7.802 2.536-11.791.662-3.989 1.108-8.029 1.108-12.135 0-5.475-.773-10.842-1.848-16.107-1.612-7.886-3.905-15.595-5.794-22.708-.948-3.552-1.788-6.945-2.427-10.069-.613-3.057-1.008-5.836-1.142-8.238v-45.492c0-3.644.277-6.584.689-9.086.621-3.762 1.536-6.568 2.628-9.582.546-1.511 1.142-3.056 1.747-4.778.597-1.722 1.201-3.612 1.68-5.719 1.972-8.716 2.746-16.644 2.746-23.656 0-10.85-1.84-19.484-3.771-25.512-1.94-6.03-3.938-9.464-4.308-10.069l-1.36-2.226-2.226-1.36c-.596-.37-4.039-2.368-10.077-4.308-6.012-1.932-14.654-3.78-25.504-3.771-7.013-.009-14.94.773-23.657 2.746-2.814.639-5.223 1.496-7.382 2.276-3.258 1.2-5.963 2.259-9.213 3.057-3.242.806-7.096 1.41-12.571 1.41h-97.08c-3.208-.176-7.146-.839-11.454-1.847-6.592-1.512-14.05-3.771-21.75-5.719-3.871-.974-7.801-1.872-11.79-2.536-3.99-.663-8.037-1.108-12.135-1.108-5.476.008-10.842.773-16.108 1.839-7.886 1.612-15.595 3.914-22.708 5.803-3.552.949-6.945 1.789-10.069 2.427-3.057.604-5.836 1.008-8.23 1.142h-97.097c-3.636 0-6.584-.277-9.086-.688-3.762-.622-6.567-1.538-9.582-2.629-1.503-.546-3.065-1.142-4.778-1.746-1.722-.597-3.611-1.202-5.72-1.68-8.716-1.973-16.644-2.754-23.656-2.746-10.851-.009-19.484 1.839-25.513 3.771-6.03 1.94-9.473 3.938-10.069 4.308l-2.234 1.36-1.352 2.217c-.37.613-2.377 4.048-4.308 10.078-1.931 6.029-3.78 14.662-3.78 25.512 0 7.012.773 14.94 2.763 23.656.639 2.814 1.478 5.224 2.268 7.382 1.201 3.258 2.259 5.963 3.065 9.204.798 3.25 1.403 7.105 1.403 12.58v45.492c-.176 3.216-.848 7.138-1.847 11.446-1.512 6.592-3.771 14.05-5.719 21.751-.983 3.863-1.873 7.801-2.537 11.79C.446 247.854 0 251.893 0 256c.008 5.467.773 10.842 1.848 16.107 1.604 7.886 3.905 15.595 5.794 22.708.948 3.552 1.788 6.945 2.418 10.069.622 3.04 1.016 5.82 1.151 8.213v45.517c0 3.644-.277 6.584-.688 9.086-.622 3.762-1.538 6.567-2.629 9.582-.546 1.503-1.142 3.056-1.747 4.778-.597 1.722-1.201 3.612-1.672 5.711-1.99 8.725-2.763 16.662-2.763 23.665 0 10.851 1.848 19.484 3.78 25.505 1.932 6.038 3.938 9.472 4.308 10.077l1.36 2.226 2.226 1.36c.596.37 4.039 2.368 10.069 4.3 6.021 1.94 14.662 3.78 25.513 3.78 7.012 0 14.94-.773 23.656-2.754 2.814-.638 5.232-1.487 7.39-2.276 3.258-1.192 5.954-2.25 9.204-3.048 3.242-.806 7.096-1.41 12.571-1.41h97.071c3.225.176 7.147.84 11.463 1.847 6.592 1.512 14.05 3.771 21.75 5.72 3.863.973 7.802 1.872 11.79 2.536 3.99.663 8.028 1.1 12.136 1.108 5.475-.009 10.841-.773 16.107-1.84 7.886-1.612 15.595-3.914 22.708-5.803 3.552-.948 6.945-1.789 10.069-2.418 3.048-.622 5.836-1.016 8.23-1.151h97.096c3.644 0 6.584.277 9.086.688 3.762.622 6.567 1.538 9.582 2.629 1.503.546 3.056 1.142 4.778 1.747 1.722.597 3.612 1.201 5.72 1.672 8.716 1.981 16.644 2.754 23.657 2.754 10.85 0 19.492-1.84 25.504-3.78 6.038-1.931 9.481-3.93 10.077-4.3l2.226-1.36 1.36-2.226c.37-.604 2.368-4.039 4.308-10.077 1.931-6.021 3.771-14.654 3.771-25.505 0-7.003-.773-14.94-2.746-23.665-.639-2.805-1.487-5.216-2.276-7.382-1.2-3.25-2.259-5.954-3.065-9.204-.798-3.25-1.403-7.096-1.403-12.571v-31.409l.001-1.58zM48.968 74.649c5.458 0 11.774.596 18.937 2.217 1.344.31 2.864.806 4.77 1.512 2.864 1.042 6.61 2.536 11.404 3.729 4.812 1.2 10.623 2.041 17.71 2.032h97.726l.277-.008c5.182-.277 10.271-1.218 15.334-2.385 7.584-1.755 15.116-4.039 22.179-5.82 3.519-.89 6.911-1.654 10.069-2.184 3.158-.52 6.081-.814 8.625-.814 3.401-.009 7.449.52 11.849 1.419 6.617 1.335 13.982 3.502 21.474 5.51 3.754.999 7.541 1.948 11.354 2.721 3.812.764 7.65 1.352 11.53 1.553l.277.008h97.726c4.719 0 8.876-.361 12.554-.974 5.51-.898 9.935-2.36 13.395-3.619 1.738-.63 3.225-1.201 4.526-1.655 1.294-.453 2.393-.789 3.41-1.024 7.164-1.621 13.479-2.217 18.938-2.217 5.912 0 10.791.705 14.628 1.579l-50.345 50.353H82.258L32.374 76.698c4.082-1.084 9.641-2.049 16.594-2.049zm374.83 63.924v234.854H88.203V138.573h335.595zM23.052 411.435c0-5.458.596-11.774 2.226-18.928.302-1.36.798-2.872 1.503-4.779 1.033-2.864 2.536-6.601 3.737-11.404 1.192-4.812 2.032-10.623 2.024-17.71v-46.121l-.009-.286c-.277-5.182-1.209-10.271-2.384-15.334-1.755-7.584-4.048-15.116-5.82-22.179-.89-3.519-1.654-6.911-2.175-10.069-.529-3.158-.823-6.081-.823-8.625-.009-3.401.52-7.449 1.419-11.849 1.336-6.617 3.503-13.99 5.51-21.474.991-3.754 1.956-7.541 2.712-11.354.772-3.812 1.36-7.65 1.562-11.53l.009-.277v-46.13c0-4.728-.361-8.876-.966-12.554-.898-5.51-2.368-9.935-3.628-13.403-.638-1.73-1.209-3.216-1.654-4.518-.453-1.293-.79-2.393-1.016-3.41-1.63-7.163-2.226-13.478-2.226-18.937 0-5.912.705-10.791 1.588-14.638l51.563 51.571v239.439l-51.101 51.085c-1.085-4.073-2.051-9.632-2.051-16.586zm439.98 25.916c-5.459 0-11.774-.596-18.938-2.217-1.352-.311-2.864-.806-4.77-1.512-2.864-1.041-6.601-2.536-11.404-3.736-4.812-1.201-10.623-2.033-17.71-2.024h-97.727l-.277.009c-5.182.277-10.279 1.209-15.334 2.384-7.584 1.755-15.116 4.048-22.178 5.82-3.528.89-6.912 1.654-10.069 2.174-3.158.529-6.08.823-8.624.823-3.402.008-7.457-.52-11.858-1.419-6.609-1.344-13.974-3.503-21.464-5.51-3.755-1-7.542-1.956-11.355-2.721-3.812-.764-7.65-1.352-11.53-1.553l-.277-.009h-97.726c-4.719 0-8.876.361-12.554.966-5.509.898-9.935 2.377-13.403 3.628-1.73.629-3.216 1.209-4.518 1.654-1.293.453-2.393.79-3.41 1.024-7.163 1.621-13.479 2.217-18.937 2.217-5.912 0-10.792-.705-14.638-1.579l50.354-50.353h342.631l50.362 50.361c-3.838.877-8.751 1.573-14.646 1.573zM489.25 267.85c-1.336 6.617-3.502 13.982-5.509 21.472-1 3.754-1.957 7.542-2.722 11.355-.764 3.812-1.352 7.65-1.545 11.53l-.017.277v46.13c0 4.728.361 8.876.966 12.546.898 5.517 2.368 9.942 3.628 13.402.638 1.739 1.2 3.225 1.654 4.527.453 1.293.79 2.393 1.024 3.41 1.621 7.163 2.217 13.479 2.217 18.937 0 6.962-.974 12.504-2.066 16.586l-51.084-51.085V135.063l51.092-51.092c1.091 4.081 2.057 9.641 2.057 16.594 0 5.458-.596 11.774-2.217 18.937-.31 1.352-.814 2.864-1.512 4.77-1.041 2.864-2.536 6.601-3.736 11.405-1.193 4.811-2.033 10.623-2.024 17.71v46.139l.017.268c.26 5.182 1.201 10.271 2.376 15.335 1.755 7.584 4.04 15.116 5.82 22.17.89 3.527 1.654 6.92 2.175 10.078.529 3.158.823 6.08.823 8.624.002 3.4-.518 7.448-1.417 11.849z"/><path class="st0" d="M330.53 269.587a17.026 17.026 0 00-12.538-6.046 17.029 17.029 0 00-12.873 5.299l-41.342 43.518-48.859-73.297a17.084 17.084 0 00-14.201-7.6 17.081 17.081 0 00-14.2 7.6l-71.794 107.694h280.916l-65.109-77.168zM302.466 240.7c19.004 0 34.398-15.394 34.398-34.398 0-19.005-15.394-34.398-34.398-34.398-19.005 0-34.398 15.393-34.398 34.398 0 19.004 15.393 34.398 34.398 34.398z"/></svg>