<svg version="1.1" id="_x32_" xmlns="http://www.w3.org/2000/svg" x="0" y="0" viewBox="0 0 512 512" style="width:48px;height:48px" xml:space="preserve" opacity="1"><style>.st0{fill:#4b4b4b}</style><path class="st0" d="M508.856 329.338H473.42V70.752H276.586V0h-46.314v70.752H38.58v258.586H3.144v46.314h120.028L80.605 512h48.469l42.56-136.349h58.639v105.488h46.314V375.651h58.639L377.785 512h48.469l-42.567-136.349h125.169v-46.313zm-74.031 0H77.174V109.347h357.651v219.991z"/><path class="st0" d="M217.993 290.026c6.226 6.928 16.878 7.531 23.858 1.365l1.809-1.598c6.543-5.789 30.996-33.138 42.16-20.714l5.526 5.141c6.746 6.286 17.285 6.03 23.722-.573l54.462-55.902a16.977 16.977 0 001.749-21.574l-1.696-2.42a16.959 16.959 0 00-25.486-2.676l-4.244 3.966c-6.452 6.015-16.44 6.09-22.983.166l-8.39-7.614c-6.708-6.076-17.006-5.819-23.406.581l-71.385 73.036c-6.385 6.385-6.649 16.644-.611 23.353l4.915 5.463z"/></svg>