<svg version="1.1" id="_x31_0" xmlns="http://www.w3.org/2000/svg" x="0" y="0" viewBox="0 0 700.094 800" xml:space="preserve"><style>.st0{fill:#fff;stroke:#000;stroke-width:2}</style><path class="st0" d="M591.197 256.997c-9.898 0-41.793 10.99-41.793 10.99s-14.814 6.521-40.111 24.109c-25.288 17.601-68.764 114.454-81.957 143.045-13.191 28.591 17.23 53.523 29.321 56.824 12.097 3.298 15.756 16.873 19.062 17.963 3.302 1.102 59.585 4.728 76.987 1.102 26.389-5.493 40.686-12.096 74.778-51.689 34.083-39.593 24.2-97.881 16.495-145.167-7.699-47.289-42.89-57.177-52.782-57.177z"/><path class="st0" d="M256.872 364.766c2.209 61.577 57.837 93.913 87.536 106.005 29.696 12.104 81.826 20.459 90.633 20.459 0 0-24.205-19.797-23.103-36.288 1.102-16.499 8.807-37.393 30.792-80.288 21.994-42.886 45.093-81.369 45.093-81.369-17.403-26.897-74.784-51.689-89.079-51.689-14.292 0-39.589-1.102-49.492-5.501-9.893-4.391-39.583-17.593-39.583-17.593l-7.704 2.195s2.194 12.096-4.408 21.996c-6.592 9.897-42.885 60.492-40.685 122.073zM657.178 90.928c-4.398-42.89-24.194-46.192-23.102-27.485 1.107 18.687-18.69 45.078-47.282 75.885-28.598 30.778-20.458 92.585-26.721 112.645 0 0 16.813-5.979 28.931-7.08 12.085-1.098 58.634 6.595 67.073 69.652 5.128 38.335 6.598 70.018 6.598 70.018 11-16.499 39.714-59.863 35.19-147.375-3.239-62.609-36.299-103.369-40.687-146.26z"/><path class="st0" d="M464.724 188.801c-3.301 18.695-9.897 64.891-9.897 64.891s37.403 21.996 42.893 30.795c0 0 37.1-25.602 49.188-30.005 0 0 5.309-70.503 11.911-85.896 6.597-15.398 15.883-32.563 21.378-35.86 5.495-3.302-2.303-35.272 3.286-49.498 2.924-7.429-22.349-26.359-23.41-36.263-1.103-10.332-17.029 18.284-35.734 36.991-18.695 18.694-56.314 86.15-59.615 104.845zM619.006 86.463c17.588-27.493 2.978-42.825 15.071-45.02 12.106-2.199 22.539 14.295 22.539 14.295 0-6.603-29.132-61.589-29.132-52.787 0 8.799-24.194 53.885-30.792 69.282-6.602 15.397-7.943 39.437-4.648 49.341 0 .001 19.792-23.911 26.962-35.111zM445.971 246.957s5.637-53.913 9.957-69.15c2.273-8.054 12.607-23.007 12.607-23.007s-56.598-30.877-63.194-25.376c-6.597 5.493 13.194 37.386 15.403 47.286 2.183 9.9 25.227 70.247 25.227 70.247zm83.633-179.122s-6.597-20.898-15.398-38.487c-8.786-17.597-29.685-3.305-45.078 19.788-15.399 23.098-42.894 60.492-42.894 74.787l46.181 20.89c-.001 0 31.903-62.683 57.189-76.978zM410.835 231.704l26.398 15.389s-24.194-58.292-25.296-65.985c0 0-1.102 45.087-1.102 50.596zm34.093 278.224c-.147-5.493-10.995 5.51-10.995 5.51-12.098 15.389-41.787 40.683-46.186 40.683-4.408 0-35.924-13.268-54.634-4.473-18.684 8.807-77.339 15.471-92.737 15.471-15.388 0-84.95-18.571-104.742-36.16-19.791-17.601 18.965 37.258 78.349 53.761 59.394 16.491 128.675 3.293 158.37-5.501 29.691-8.803 73.304-42.529 72.575-69.291z"/><path class="st0" d="M271.173 556.12c32.559-5.423 52.787-13.198 68.186-16.495 15.388-3.297 38.49 7.693 46.19 6.591 7.695-1.094 46.631-37.826 46.631-37.826l-26.329-3.141s-34.598 6.879-49.996.288c-15.402-6.603-72.583-29.701-97.879-43.996-25.292-14.3-144.066-50.587-181.449-49.494-37.398 1.098-92.38-9.892-69.293 5.501 23.093 15.397 58.288 58.288 115.473 96.775 57.188 38.487 115.123 47.356 148.466 41.797z"/><path class="st0" d="M173.298 417.549c19.625 7.479 103.374 37.393 138.555 58.288 35.2 20.902 64.889 24.187 64.889 24.187l12.098-3.285s-43.976 1.098-95.672-45.098c-51.689-46.188-47.193-93.716-46.185-104.472 0 0-62.695-45.094-86.885-54.99-24.199-9.896-112.166-29.697-120.972-34.088-8.801-4.4 2.209 20.894 12.102 38.495 9.892 17.589 98.968 112.164 122.07 120.963zm75.816-80.938s10.026-53.292 26.451-77.422c12.697-18.658 18.333-35.56 16.5-46.192-2.365-13.707-54.986-14.295-73.676-48.387-12.797-23.32-8.801 8.794-12.106 14.303-3.291 5.493-29.691 82.475-24.185 113.266.002 0 61.521 38.923 67.016 44.432zm169.42 322.887c-23.772 47.803-42.526 66.338-76.977 97.864-24.733 22.625 56.079-20.89 89.079-42.886 32.995-21.988 55.358-70.367 64.145-102.26 8.801-31.901 5.73-58.066 5.73-58.066-10.03 35.113-51.405 43.886-81.977 105.348z"/><path class="st0" d="M337.512 748.503c18.807-11.915 62.064-68.957 81.503-107.835 17.465-34.931 50.779-55.796 72.471-80.518 14.404-16.409 4.399-26.388 4.399-37.394l-19.817-1.201s-17.886-15.685-20.07-11.286c-2.204 4.396-4.477 27.531-37.463 52.824-32.985 25.297-43.257 43.256-66.705 93.835-16.051 34.602-20.26 95.336-14.318 91.575zm216.287-222.079l-42.879-7.697s4.398 29.697-1.108 34.084c-5.494 4.412 3.307 23.107 6.603 47.306 3.301 24.192 64.885 190.248 64.885 190.248s23.087 10.99 23.087 6.599c0-4.404-62.681-166.053-61.583-199.043 1.096-32.994 1.096-63.801 10.995-71.497z"/></svg>