<svg version="1.1" id="_x31_2" xmlns="http://www.w3.org/2000/svg" x="0" y="0" viewBox="0 0 473.211 800" xml:space="preserve"><style>.st0{fill:#fff;stroke:#000;stroke-width:2}</style><path class="st0" d="M217.471 462.552c-11.022-7.349-14.7-4.589-13.775 5.504 1.184 13.097 27.544 49.585 46.817 53.255 19.28 3.664 44.07-13.773 48.662-21.113 4.592-7.355 5.511-27.547 5.511-27.547s-6.437.925-26.624 2.755c-20.191 1.829-49.581-5.509-60.591-12.854zm-44.669-18.056c-11.04-4.928-45.002-18.352-69.787-40.39-24.784-22.032-39.781-60.588-39.781-60.588s-6.425 6.118-11.943 11.622c-5.499 5.515-3.665 34.886 5.517 58.753 9.177 23.873 51.416 73.447 61.512 72.532 10.09-.925 67.015-21.419 78.944-31.518.002 0-12.846-5.203-24.462-10.411z"/><path class="st0" d="M354.256 309.234c-30.289 22.952-80.791 76.202-88.128 88.13-7.35 11.939-46.823 52.335-46.823 52.335 7.343 5.504 50.489 24.782 83.544 14.694l10.102-1.84s1.839 22.947 0 30.291c-1.839 7.355 58.753-31.211 73.447-47.729 14.688-16.528 43.144-56.929 42.226-77.127-.913-20.192-33.963-75.281-44.985-85.386-11.01-10.094.914 3.68-29.383 26.632zm-248.791 78.032c27.537 25.712 90.887 55.697 99.151 56.623 0 0 25.704-18.062 47.737-43.759 22.032-25.707 44.675-56.612 68.862-78.956 0 0-12.856-52.34-43.152-82.631-30.302-30.291-77.118-70.692-84.463-92.724-7.35-22.027-29.382 14.688-83.542 47.745-54.174 33.046-56.006 94.559-55.087 110.167.913 15.608 22.945 57.833 50.494 83.535z"/><path class="st0" d="M419.439 113.686c-6.43 16.528-13.762 36.731-33.961 58.764-20.199 22.032-62.128 106.799-64.572 117.819-1.996 8.999 8.565 23.254 8.565 23.254s34.894-18.056 42.233-39.174c7.349-21.113 7.349-8.264 21.113 6.43 13.773 14.688 45.909 65.177 46.822 83.546 0 0 29.999-39.18 32.142-89.055 1.719-40.401-5.519-100.989-22.039-129.451-16.534-28.453-23.878-48.662-30.303-32.133zM39.375 270.673c-13.478-50.795-11.948-63.348-9.195-82.615 2.759-19.288 17.447-39.481 12.856-39.481-4.599 0-22.033 14.678-35.808 47.735-19.576 47.01 12.849 125.776 33.974 154.243 0 0 7.634-7.904 10.404-16.227 1.217-3.675-5.68-38.904-12.231-63.655zm339.678-105.271c3.666-4.584-46.829-58.14-56.931-74.663-10.097-16.534 1.845-20.198-20.187-3.68-22.032 16.528-77.491 36.435-85.073 42.849-11.943 10.099-7.956 14.075-7.956 14.075 1.832 11.934 37.023 44.076 59.054 65.183 22.033 21.118 43.762 49.279 47.742 64.268.995 3.76 19.287-46.211 42.535-77.428 10.078-13.536 17.145-26.02 20.816-30.604z"/><path class="st0" d="M116.488 90.739c-25.099 23.867-42.849 23.867-50.804 37.334-10.896 18.437-22.404 39.142-28.154 60.583-10.103 37.646 9.176 77.127 9.176 77.127 8.265-24.788 23.255-62.428 62.426-85.994 32.109-19.325 42.231-32.137 48.662-35.806 6.424-3.669-16.647-34.569-17.441-55.084-.926-23.873-2.154-18.823-23.865 1.84zm107.71 27.536c7.791-3.891 23.878-12.853 29.376-14.688 5.518-1.829-23.865-15.915-34.269-42.23-6.877-17.417-1.833-17.449-30.295 1.84-28.458 19.278-33.974 40.39-33.974 40.39.925 10.099 10.43 19.304 15.923 33.052 1.215 3.051 11.318-10.099 21.414-7.344 10.103 2.755 9.183 8.571 9.183 8.571s5.518-11.02 22.642-19.591zm133.427-1.84c15.609 14.694 27.545 40.395 31.217 34.278 6.008-10.02 26.925-42.531 26.925-42.531s-9.177-8.265-14.681-21.123c-5.517-12.854-11.023-37.329-22.033-24.782-11.658 13.271-34.9 26.622-40.399 30.297 0-.001 3.364 9.184 18.971 23.861z"/><path class="st0" d="M120.154 78.493c11.167-11.167 24.791-25.401 25.709-13.467.913 11.939 4.278 31.524 4.278 28.769 0-2.761 15.305-18.971 15.305-18.971s-12.244-16.217-21.427-28.155c-9.183-11.939-10.096-10.094-15.608-5.505-5.505 4.579-14.386 13.467-30.894 22.641-16.533 9.179-34.894 30.598-36.727 56.924 0 0 13.46-11.627 28.15-18.971 14.686-7.355 22.654-14.699 31.214-23.265zm50.804-9.179l34.886-24.481s-8.873-3.061-17.138-15.915c-8.264-12.854-8.879-23.561-18.971-14.387-10.109 9.179-24.79 13.774-22.959 21.123 1.834 7.345 23.256 30.911 24.182 33.66zm62.115-3.373s17.44 23.571 31.523 31.523c8.353 4.722 39.172-19.579 45.595-27.843 6.426-8.264-16.522-29.382-16.522-41.316s.914-6.43-23.876 6.424c-24.783 12.854-36.72 31.212-36.72 31.212zm83.545-7.64c-.298 5.203 4.899 14.683 14.687 26.31 2.444 2.897 24.785-6.726 35.808-16.83 11.016-10.093 9.183-20.198 6.423-32.126-2.751-11.944-23.562 9.787-29.986 13.457-6.425 3.679-26.932 9.189-26.932 9.189zM346 40.239s-9.177-7.339-12.856-24.787c-3.673-17.438-11.627-.92-17.132 3.68-8.447 7.037-6.74 3.67-14.688 9.787l12.231 22.651L346 40.239zm-125.467 1.533c0 6.435 7.345 17.136 7.345 17.136l20.199-18.965s-7.653-3.368-18.669-18.067C218.385 7.198 218.385-3.826 210.122 5.358c-8.258 9.173-18.361 15.608-18.361 15.608l17.145 19.58s11.627-5.203 11.627 1.226zm62.121-23.566c3.673-5.509-3.671-4.584-9.19-13.773-5.504-9.179-20.797 20.504-30.9 21.425l12.548 7.957s23.871-10.104 27.542-15.609zm-56.923 500.345c-5.506-2.744-33.969-33.051-33.056-42.23.925-9.174-13.762.914-13.762.914 8.263 12.859 3.671 65.188-.92 91.821-4.592 26.617-24.791 193.708-24.791 217.57 0 23.867 36.728 2.76 36.728 2.76s23.865-223.09 29.375-240.539c5.498-17.437 11.935-27.536 6.426-30.296z"/></svg>