<svg version="1.1" id="_x30_" xmlns="http://www.w3.org/2000/svg" x="0" y="0" viewBox="0 0 730.354 800" xml:space="preserve"><style>.st0{fill:#fff;stroke:#000;stroke-width:2}</style><path class="st0" d="M235.516 460.621c35.519 7.563 65.778-2.26 75.588-4.545 0 0 13.618-15.87 2.272-37.03-9.822-18.339-61.99-34.021-77.102-36.294-15.134-2.264-53.688-11.338-62.744-3.022-9.078 8.32-9.078 34.77-3.03 44.606 6.047 9.835 39.084 30.764 65.016 36.285zM14.77 330.583c0 .291.109.692.27 1.14-.205-1.371-.27-1.893-.27-1.14zM167.482 433.4c12.082-3.018-4.554-6.806-4.554-6.806-19.658.771-64.242-17.385-75.588-27.965-11.337-10.58-34.004-23.433-46.129-34.77-11.15-10.48-24.234-26.724-26.171-32.136.818 5.499 3.949 25.318 14.842 37.426 13.61 15.117 43.848 44.606 71.822 55.93 27.969 11.351 53.683 11.351 65.778 8.321zm27.208 18.9l-21.16-11.337s-12.852 1.515-29.493 0c-16.627-1.502-24.943-1.502-41.575 3.788-16.637 5.29-28.731 15.112-49.904 14.355-21.16-.745 20.424 6.805 65.779 6.056 45.371-.767 76.353-12.862 76.353-12.862z"/><path class="st0" d="M93.397 443.235c5.29-3.03 20.394-6.806 20.394-6.806s-6.806-3.775-12.086-4.541c-5.299-.749-24.943 7.571-37.805 12.861-12.844 5.29-25.705 6.034-12.844 9.822 12.843 3.79 37.042-8.319 42.341-11.336zm0-84.665s-14.363 0-27.974-3.03c-13.623-3.026-36.285-13.606-36.285-13.606 9.823 14.355 54.424 45.358 72.567 56.696 18.147 11.337 45.363 18.143 55.199 17.385 0 0-11.351-5.29-23.446-15.87-12.105-10.58-40.061-41.575-40.061-41.575zm335.649 109.613c28.731-2.273 91.471-38.558 118.678-65.021 27.216-26.45 33.264-52.164 32.506-64.25-.736-12.104-17.372-49.142-23.42-49.891-6.061-.762-23.441 9.069-52.926 21.16-29.476 12.095-120.781 68.034-134.391 85.41-13.618 17.398-32.353 39.555-33.855 41.836-1.502 2.259-7.136 11.855-7.136 11.855 15.87 12.853 71.812 21.17 100.544 18.901z"/><path class="st0" d="M326.355 428.798c.706 9.788 28.387-31.243 40.483-41.836 12.108-10.58 32.737-26.885 45.572-32.175 12.861-5.294 1.524-34.783-3.03-40.818-4.524-6.056-64.25-68.042-68.016-73.341-3.788-5.29 0-7.553-38.567 18.9-38.567 26.459-69.549 49.895-87.692 73.337-11.59 14.938-5.303 36.285-5.303 36.285 23.446 5.29 72.797 16.981 92.237 27.22 13.684 7.188 22.801 11.242 24.316 32.428zM168.227 372.18c12.866-6.056 24.19-3.03 32.51-3.788 0 0-13.611-53.678-24.957-73.332-11.329-19.654-56.687-89.198-60.466-99.029-3.775-9.831-9.831-24.199-9.831-27.212 0-3.025-13.601 3.775-25.705 17.381-12.095 13.61-17.376 45.359-6.047 96.76 11.337 51.42 33.254 80.134 39.315 86.938 6.048 6.814 46.117 40.826 46.117 40.826-.001-9.064-3.776-32.51 9.064-38.544zm178.417 123.21c-2.055-17.263-8.32-25.696-12.095-29.48-3.775-3.775-10.593-13.611-15.883-6.805-5.29 6.805-26.45 9.078-30.996 9.078-4.519 0-7.549 4.532-7.549 4.532 1.502 24.19 24.948 51.406 39.315 68.047 14.364 16.615 55.93 37.03 64.995 47.632 9.086 10.58 13.61 15.848 13.61 19.649 0 3.775 6.814-19.649-4.524-38.571-11.345-18.879-43.089-42.32-46.873-74.082zm207.894-28.714c-19.658 0-48.389-3.03-54.437-7.571-6.039-4.533-10.593-4.533-12.84-3.775-2.273.745-24.96 13.611-40.073 16.636-15.112 3.008-42.912 6.227-50.475 3.967-7.563-2.286-33.855-9.296-33.855-9.296 15.121 16.615 63.915 40.849 97.927 42.364 34.025 1.51 98.276-24.19 115.669-43.09 17.399-18.901-2.259.765-21.916.765z"/><path class="st0" d="M269.529 184.684c-18.896 6.801-50.662 18.525-71.321 50.91-14.512 22.736-17.533 48.28-15.283 49.795 2.273 1.515 1.184 5.891 10.258 27.808 5.564 13.445 8.298 29.48 12.086 24.203 5.725-8.02 10.58-17.398 30.247-37.804 12.792-13.297 48.559-41.366 60.475-47.627 21.047-11.059-11.338-52.16-12.84-61.991-1.528-9.826 5.291-12.094-13.622-5.294zm242.676 115.675s14.368-6.806 27.212-12.1c12.848-5.299 25.692-15.121 27.216-8.316 1.515 6.805 12.095 22.675 12.095 22.675 6.039-9.065 17.394-51.402 18.143-67.281.758-15.878 6.047-22.679-3.017-17.385-9.087 5.286-36.577 44.88-41.131 50.175-4.751 5.568-31.005 26.371-40.518 32.232zm-104.332-3.784s15.874 14.363 17.398 22.684c1.502 8.316 1.502 26.45 1.502 26.45l6.047-3.03c12.844-7.55 40.818-24.934 48.394-28.71 7.55-3.788 32.619-21.312 46.865-33.268 17.351-14.564 19.645-18.905 24.943-24.194 5.281-5.29 18.143-27.216 28.723-36.285 10.593-9.078-79.537 29.445-95.398 39.272-15.891 9.825-70.154 31.029-78.474 37.081zm-55.181-80.134c-6.818 14.36-2.264 16.632-2.264 16.632 6.039 12.852 42.333 49.142 50.64 56.696 0 0 32.345-14.198 58.05-26.293 25.705-12.095 77.02-35.845 92.289-44.479 7.258-4.11 13.941-48.467-1.328-89.625-9.078-24.464-8.495-35.972-18.983-24.822-20.185 21.495-79.946 29.471-119.444 52.921-33.412 19.838-52.155 44.607-58.96 58.97zm374.651 45.041c0 3.78-3.592 4.511-8.769 13.166-21.16 35.532-49.974 29.59-71.56 50.575-27.229 26.459-65.269 51.489-65.269 51.489-8.316 18.143-39.873 44.322-54.237 53.409 0 0 67.503-15.444 112.866-63.066 19.815-20.82 81.23-71.242 85.776-86.355 4.532-15.12 1.193-22.996 1.193-19.218zm-144.082 55.504s6.849 8.764 5.312 26.158c-1.524 17.625-4.637 23.237-4.637 23.237 15.125-8.32 62.073-41.832 76.428-75.1 9.387-21.726 3.03-5.295-12.082 2.272-15.126 7.55-61.243 19.645-65.021 23.433z"/><path class="st0" d="M692.125 294.306c18.891-13.606 21.264-19.545 21.264-19.545-6.035 5.29-40.922 10.475-40.922 10.475-3.784 11.338-9.823 21.165-18.129 28.731-.001.001 18.886-6.054 37.787-19.661zm-110.38 15.875s56.7-18.9 66.536-23.433c9.831-4.532-55.185-3.788-55.185-3.788l-11.351 27.221zM88.098 344.959c-8.32-14.376-29.48-72.579-29.48-106.596 0 0-21.173-24.19-21.173-43.848s-4.532-88.454-7.563-109.622c-3.026-21.165-10.589-12.853-20.411 25.71-9.827 38.558-13.758 94.453 10.589 152.708 18.683 44.697 68.038 81.648 68.038 81.648z"/><path class="st0" d="M76.003 177.13c6.709-10.319 19.657-15.121 19.657-15.121.745-13.611-9.069-42.333-17.385-61.991-8.321-19.658-20.429-34.017-10.593-51.411 9.823-17.381-7.562-17.381-15.125 23.433-7.558 40.827-14.355 117.076 7.563 149.695 0 .001 6.047-29.484 15.883-44.605zm65.774 41.576l19.24 28.178c17.272-17.929 34.369-87.744 49.542-125.706 9.078-22.671 21.931-76.349 27.208-87.687 5.303-11.338-3.017-2.264-3.017-2.264-25.692 13.602-40.818 43.844-51.398 78.618-10.593 34.775-30.995 99.791-41.575 108.861z"/><path class="st0" d="M104.734 155.967s9.823 3.775 13.602 21.917c3.775 18.147 15.878 36.29 19.657 31.753 3.784-4.541 22.684-55.947 22.684-55.947-1.515-5.29-43.099-67.285-52.921-84.661-9.827-17.394-17.398-22.683-18.9-36.29 0 0-14.803 22.014-14.803 29.576 0 7.558 9.509 34.683 16.305 48.289 6.805 13.605 14.376 45.363 14.376 45.363zm108.865-13.615c-12.736 34.152-35.536 94.497-35.536 94.497-5.086 8.703-9.835 18.147-11.338 20.415-1.524 2.264 9.574 16.17 9.574 16.17.653-16.597 17.507-47.039 27.464-56.993 7.567-7.558 25.705-24.19 25.705-24.19L227.944 85.66s-11.015 47.727-14.345 56.692zm25.696 43.848l.07 2.255s8.246-1.502 21.848-7.545c13.606-6.052 25.714-9.831 25.714-9.831s1.389 14.882 8.877 30.651c13.362 28.196 13.941 33.198 13.941 33.198 2.656-15.931-.901-42.677-3.174-98.62-1.802-44.566-30.238-101.302-36.285-119.444-6.056-18.147 0-17.389-10.589-9.831-23.537 16.824-21.16 60.484-21.931 77.861-.744 17.398 1.529 79.384 1.529 101.306zm82.402 52.712s8.816-9.958 12.604-9.958c3.784 0 10.071 6.383 8.556 3.357-1.493-3.021 11.721-40.591 30.612-56.47 18.909-15.866 37.434-28.958 37.434-28.958s-11.329-30.995-13.61-49.138c-2.133-17.097 2.934-21.086-20.494-13.518-23.437 7.549-49.791 11.947-61.151 30.908-4.14 6.901-.766 13.611-.766 31 .001 17.386 6.815 92.777 6.815 92.777zM251.386 471.2s-10.589 81.657-28.723 127.007c-18.151 45.35-110.375 192.024-110.375 198.084 0 0 34.779 7.549 45.351-9.091 10.589-16.636 84.683-140.613 93.748-170.842 9.069-30.246 30.237-108.873 30.237-108.873l-9.064-33.255-21.174-3.03z"/></svg>