<svg version="1.1" id="_x32_" xmlns="http://www.w3.org/2000/svg" x="0" y="0" viewBox="0 0 800 617.663" xml:space="preserve"><style>.st0{fill:#fff;stroke:#000;stroke-width:2}</style><path class="st0" d="M310.345 414.155c-14.679-5.648-53.079-12.435-53.079-12.435s-15.805 5.647-14.686 28.247c.565 11.342 25.977 28.225 42.922 32.746 16.938 4.517 38.043 6.208 51.954-2.233 25.985-15.83 31.628-40.682 31.628-40.682-5.644 1.13-44.045 0-58.739-5.643z"/><path class="st0" d="M245.975 401.72c13.542-10.165 21.455-5.644 32.746-2.251 11.301 3.396 82.459 20.329 90.361 14.686 7.899-5.648 16.938-25.977 16.938-25.977s-11.291-6.788-21.456-9.039c-10.165-2.27-15.812-16.938-15.812-16.938-11.299 3.378-74.543 18.064-112.943 19.19-38.412 1.144-100.53-4.521-126.504-11.309l-25.988-6.773s67.773 28.247 82.46 35.035c14.683 6.773 63.251 29.354 66.636 31.624 3.397 2.265.002-18.083 13.562-28.248z"/><path class="st0" d="M90.099 318.146c12.97 11.837 62.137 55.345 84.707 55.345 22.592 0 72.771.813 93.09-1.457 0 0 26.645-4.186-10.63-8.725-37.275-4.499-77.931-24.833-101.653-45.162-23.725-20.33-81.326-44.037-101.656-56.471C33.632 249.258 2 208.58 2 215.368c0 6.769 62.123 79.071 88.099 102.778zm54.224 51.935l-23.725-16.919-9.024-3.396s-41.797-4.518-38.42 0c3.396 4.521 18.082 12.434 27.11 13.542 9.043 1.145 44.059 6.773 44.059 6.773z"/><path class="st0" d="M66.385 261.674s55.353 29.368 68.895 36.142c13.561 6.769 55.338 37.267 68.898 44.037 13.561 6.787 85.246 23.445 85.246 23.445s13.169-.42 27.855-3.817c0 0-15.967-2.672-30.653-10.571-14.686-7.913-74.535-39.533-98.268-48.577-23.707-9.039-106.167-54.22-137.787-70.031-31.628-15.809-28.247-12.538-20.329-1.248 7.911 11.291 36.143 30.62 36.143 30.62zm519.549 92.614c5.654-12.435 16.945-50.81-4.511-59.849-21.459-9.039-42.922-6.788-60.986 7.894-18.078 14.687-53.087 23.725-73.424 29.373-20.323 5.643-44.055 10.146-60.993 14.686-16.938 4.517-24.851 10.165-25.977 15.808-1.565 7.829 18.082 15.794 29.361 21.455 11.302 5.648 37.286 20.334 49.71 33.894 12.416 13.542 62.111 4.499 89.222-10.184 27.103-14.666 51.961-40.642 57.598-53.077zM375.863 141.94c-46.325-35.016-64.385-53.076-66.655-58.723-2.24-5.644-14.668 20.33-38.393 33.872-23.714 13.561-71.146 56.475-51.95 122.004 19.204 65.492 60.99 94.865 77.927 106.155 16.946 11.309 48.577 6.788 48.577 6.788 9.032-4.522 73.52-18.484 89.229-24.866 21.551-8.743 17.561-46.871 13.962-65.724-8.873-46.429-26.397-84.49-72.697-119.506z"/><path class="st0" d="M447.014 217.619c10.165 24.851 18.167 81.902 9.135 103.339 0 0 32.661-6.19 62.03-26.519 17.111-11.856 38.393-13.56 45.174-13.56 6.769 0 11.298-3.392 30.494-31.621 19.197-28.262 36.142-134.421 33.876-155.876-2.251-21.455-16.93-71.158-23.711-42.911-6.78 28.225-72.291 79.053-96.016 92.595-23.707 13.568-71.147 49.702-60.982 74.553zm336.581-49.695c-23.714 6.781-42.91 48.569-55.345 67.773-12.428 19.189-37.268 37.267-53.08 47.432-15.819 10.165-72.291 53.094-72.291 63.263 0 10.165-27.11 38.375-27.11 38.375s41.796-5.628 64.384-19.189c22.592-13.542 70.032-66.636 85.844-88.092 15.801-21.459 38.401-68.906 55.339-91.491 16.945-22.588 25.977-24.847 2.259-18.071zm-268.808 255.27s11.291 13.542 28.225 12.416c16.953-1.126 55.357-6.769 73.435-18.06 18.064-11.309 32.746-45.185 32.746-45.185-16.952 13.543-82.463 23.711-82.463 23.711-3.389 0-41.778 27.118-51.943 27.118z"/><path class="st0" d="M592.714 291.043c9.047 7.899 13.549 24.852 11.298 36.127 0 0 48.569-40.663 67.766-50.828 19.203-10.146 49.691-39.519 61-59.849 11.291-20.333 6.769-13.542 6.769-13.542s-77.938 40.641-93.746 51.935c-15.813 11.31-53.087 36.157-53.087 36.157zm45.181-167.163s-7.36 62.469-17.543 90.712c-10.165 28.229-26.505 54.977-28.763 60.643-2.259 5.644-5.654 7.895-5.654 7.895s51.968-29.351 53.087-33.872c1.144-4.521 15.819-48.577 16.938-74.553 1.134-25.985-7.898-85.841 16.953-115.213 24.84-29.362-6.781 2.263-18.071 18.082-11.3 15.808-16.947 46.306-16.947 46.306zm-1.133-20.333c-1.207 5.525 3.392-5.644 3.392-5.644s12.435-37.275 30.487-47.432v-21.47c0-10.169-22.581 11.294-25.977 12.42-3.385 1.134-15.809 20.334-15.809 20.334 1.133 3.391 9.32 35.355 7.907 41.792zM439.115 196.16s25.969-40.66 50.828-56.472c24.833-15.809-27.11-81.323-29.38-88.103-2.259-6.769-19.196-40.656-30.495-48.565-11.283-7.902-24.851 18.074-36.142 27.11-11.291 9.039-49.695 64.378-51.954 72.291-2.085 7.282 77.947 48.558 97.143 93.739zm64.378-64.378s36.142-24.858 40.652-35.023c4.54-10.165 6.781-15.793 1.126-45.174-5.636-29.361-23.714-30.491-27.091-10.165-3.403 20.334-30.506 33.883-30.506 33.883 10.164 18.079 18.07 38.412 15.819 56.479zM232.415 297.816c0-4.521-38.393-83.574-24.851-117.464 13.561-33.89 20.34-50.835 41.796-62.126 21.456-11.302 9.032-19.197 9.032-19.197-7.906-13.553-27.11-32.765-37.267-50.828C210.96 30.13 210.96 19.973 210.96 19.973s-33.883 24.833-38.393 47.432c-4.529 22.585-4.529 84.7 12.416 138.923 16.937 54.221 47.432 98.715 47.432 91.488zm-47.432-33.872c-18.071-16.956-59.867-65.533-86.97-92.632-27.11-27.102-70.726-63.097-68.903-58.742 4.108 9.841 33.887 38.408 45.178 75.694 11.301 37.286 38.378 62.03 49.669 71.069 11.298 9.039 129.914 64.459 129.914 64.459l-37.275-29.354c-.001.001-13.554-13.559-31.613-30.494z"/><path class="st0" d="M37.027 111.453c12.42 6.773 64.381 46.318 80.193 67.773 15.801 21.455 92.008 100.368 92.008 100.368l-38.009-87.793c-1.255-8.02-17.857-28.394-43.845-35.167-16.38-4.281-50.824-32.753-77.927-47.44-27.11-14.686-24.851-4.521-12.42 2.259zm256.369-24.859c9.043-11.291 10.018-25.678 16.949-13.542 9.039 15.812 28.236 21.456 28.236 21.456l16.952-32.753s-25.995-51.95-54.22-45.178c-30.206 7.253-24.851 71.162-23.718 82.452.001 0 6.781-1.126 15.801-12.435zm97.146 319.647s-24.862 38.408-24.862 42.93c0 4.517 3.403 146.833 3.403 153.606 0 6.769 31.624 19.203 33.876 10.165 2.277-9.039 1.14-160.394 1.14-177.332 0-16.952-13.557-29.369-13.557-29.369zM270.815 101.288c3.396 2.259-2.495-35.691-1.126-51.961.679-8.117-18.07-13.556-18.07-13.556l-9.039 33.886s24.851 29.372 28.235 31.631z"/></svg>