<svg version="1.1" id="_x34_" xmlns="http://www.w3.org/2000/svg" x="0" y="0" viewBox="0 0 723.209 800" xml:space="preserve"><style>.st0{fill:#2a5770}</style><path class="st0" d="M360.149 431.077c12.085-1.014 40.294 2.015 51.369 12.072 11.088 10.096 45.664 40.972 49.38 51.381 1.279 3.608 17.124-11.241 24.17-19.304 7.059-8.047 37.273-38.113 51.386-60.259 14.108-22.168 45.333-38.3 58.432-49.393 13.09-11.075-14.104-1.993-29.227-.997-15.096.997-65.473-6.031-104.761 5.04-44.332 12.503-77.576 30.232-100.749 49.371-4.548 3.734-12.103 13.086 0 12.089zm-291.166.997c33.243 27.225 50.737 31.725 53.762 31.725 3.021 0-.37-18.617-.37-18.617-4.03-11.076-5.166-37.93-.126-55.037 5.044-17.146-36.142-97.106-29.092-144.445 2.815-18.935 8.055-44.336 18.134-57.44 10.079-13.086-49.366 37.282-64.476 86.658-15.115 49.349-11.089 129.97 22.168 157.156z"/><path class="st0" d="M116.326 323.27c7.059 27.207 16.894 37.804 15.875 52.918 0 0 17.424-9.953 23.391-17.415 9.948-12.42-7.459-109.983-3.995-150.36 2.493-29.114 14.1-58.432-1.01-51.382-15.114 7.05-37.282 52.387-44.332 74.555-7.054 22.177 3.025 64.481 10.071 91.684zm140.298-148.135c-23.16-2.024-63.941 28.552-86.101 53.745l-5.971 10.453s-1.88 58.767 5.174 42.635c7.054-16.115 27.795-33.966 41.303-41.308 32.656-17.751 36.264-36.267 53.405-53.396 17.126-17.147 15.367-10.119-7.81-12.129z"/><path class="st0" d="M248.303 360.557s19.148-42.326 21.167-68.511c2.011-26.193-11.084-77.575-12.098-80.604-1.01-3.029-9.069 11.084-9.069 11.084-7.045 9.06-27.194 21.141-43.313 32.234-16.119 11.093-29.222 25.193-33.248 44.332-4.03 19.139-3.695 53.667-4.704 56.696-1.006 3.028 37.329-7.469 81.265 4.769zm228.709-147.104c-36.272-6.032-100.017 57.753-87.998 68.68 33.257 30.232 44.293 84.603 47.278 83.607 10.688-3.569 66.909-74.712 71.944-98.89 5.044-24.18 5.044-47.34-31.224-53.397zm-25.293 149.301s6.881-1.785 22.277-5.227c21.023-4.726 59.437-4.021 59.437-4.021s11.075-24.2 9.073-46.347c-2.028-22.168-23.913-34.423-31.25-18.125-8.768 19.475-41.402 60.635-59.537 73.72z"/><path class="st0" d="M469.962 178.203c-45.337-7.059-115.862 58.432-121.916 79.586l31.011 16.38c9.065-22.146 41.79-49.001 53.258-56.234 18.913-11.946 40.668-11.541 40.668-11.541s42.321-21.163-3.021-28.191zm-189.943 71.582c11.084-5.039 38.727-1.123 45.785-4.978 5.475-2.985 56.091-66.012 67.065-84.207 17.047-28.265 15.049-49.167 15.049-49.167s-12.038-8.272-47.296 8.865c-35.254 17.116-81.479 64.063-91.557 83.202l10.954 46.285zm175.835 253.829c-2.02-5.04-41.304-44.314-58.45-55.408-17.12-11.093-49.358-3.024-49.358-3.024s-6.036-6.058-7.046-16.137c-1.005-10.057-52.396-40.289-76.566-51.36-28.761-13.19-92.693-18.147-118.891 1.988-26.189 20.175-13.647 70.708-8.055 88.668 14.109 45.35 70.521 92.689 96.706 98.725 26.206 6.053 96.728 1.036 134.009-14.1 37.279-15.095 89.657-44.313 87.651-49.352zm-110.828-87.651s52.378-40.31 75.556-42.304c0 0-12.081-58.453-42.299-85.661-30.237-27.203-66.513-31.229-76.588-31.229-10.066 0-23.152 2.011-22.164 8.068 2.659 15.923-2.498 70.046-20.91 96.919 0 .002 77.345 33.054 86.405 54.207zm38.296-95.717c4.026 7.072 13.095 14.1 7.046 16.11-6.058 2.032-11.093 2.032-14.113-1.988-6.424-8.587 3.037-21.172 7.067-14.122zm-4.047 33.26c10.074 9.061-7.041 18.121-13.099 11.071-6.027-7.049 4.378-18.951 13.099-11.071zm-22.616 39.689c-8.429 3.482-17.216-2.032-14.831-10.222 3.002-10.41 23.252 6.758 14.831 10.222zM344.452 337c-12.516-10.078-6.502-21.606 5.009-12.337 12.52 10.096 7.515 22.411-5.009 12.337zm4.608-42.943c14.1 10.074-3.016 20.153-12.089 14.1-9.06-6.058.27-22.543 12.089-14.1zm-32.246-13.108c3.011 4.025-13.095 13.107-17.12 3.029-4.035-10.079 5.723-18.23 17.12-3.029zm-15.118 71.539c-9.065-1.014-17.325-17.002-4.03-15.096 14.104 1.993 13.099 16.114 4.03 15.096zm5.043-35.271c-15.384-9.226-5.044-18.125 6.049-11.071 11.088 7.05-1.018 14.1-6.049 11.071zm16.128 47.36c-4.03-11.071 14.374-10.261 20.135-2.01 7.068 10.079-16.11 13.086-20.135 2.01zm-157.17-143.069c4.03-8.055 61.9-48.284 74.999-56.33 13.099-8.064 90.226-130.046 96.275-145.159 6.031-15.11 21.15-24.179-4.03-13.112C307.744 18 167.712 173.155 167.712 173.155s-7.424 59.171-2.015 48.353z"/><path class="st0" d="M256.362 165.095l25.646 4.552c11.079-15.105 56.473-49.145 78.637-59.22 22.159-10.07 48.77-7.454 48.77-7.454s3.107 6.706.096-18.482c-3.034-25.18-48.371-80.6-52.4-80.6-4.03 0-4.03 5.044-15.101 28.217-11.088 23.178-69.52 114.853-85.648 132.987zm154.159-22.164c-5.566 12.233-31.464 50.12-53.41 75.561l-24.836 31.79s8.508 6.014 11.45 1.493c13.934-21.398 64.777-73.572 92.985-78.62 28.217-5.031 42.321-6.045 55.416 2.019 13.099 8.068-1.584 31.812-1.584 31.812 9.06 10.079 28.374 2.485 49.275 6.467 7.977 1.514-13.447-145.072-13.447-145.072-25.193-12.089-107.794 31.233-107.794 31.233s1.297 22.768-8.055 43.317z"/><path class="st0" d="M596.052 267.698c-2.098-35.79-86.675-58.941-79.756-40.145 6.737 18.269 4.03 35.276 4.03 40.31 0 0 23.169 8.047 30.236 26.194 7.041 18.143-6.054 61.46-6.054 61.46l10.079-1.018c.001 0 43.48-52.544 41.465-86.801z"/><path class="st0" d="M688.593 295.049c-29.227-28.2-72.54-33.239-79.607-33.239 0 0-12.068 60.76-43.292 93.003 0 0 27.173-5.348 40.284-.314 13.091 5.039-7.785 16.572-19.879 28.661-12.09 12.107-24.775 15.301-33.84 26.394-9.069 11.075-76.587 88.503-81.622 94.56-5.035 6.032 22.394-2.511 22.394-2.511 36.259-13.086 113.957-74.568 135.111-100.757 21.145-26.189 73.545-69.507 88.646-71.539 15.118-1.99-10.249-16.921-28.195-34.258zm-86.662-48.336c2.942 2.925 40.302 14.082 39.301 11.075-1.01-3.029 9.065-89.664 11.093-110.828 2.002-21.158-65.438-9.6-81.605-8.064-21.172 2.024-22.168 6.045-24.183 21.163l6.049 54.411c0 .001 32.22 15.106 49.345 32.243z"/><path class="st0" d="M578.775 461.293c-5.04 5.039-31.25 26.211-58.449 38.278-27.203 12.111-66.618 20.946-66.618 20.946-32.238 29.235-118.761 55.572-134.871 57.644-31.233 4.043 47.774 19.988 92.68 16.111 44.275-3.812 67.514-26.167 86.64-31.207 19.148-5.039 36.29 12.09 54.428 4.026 51.151-22.73 79.79 4.704 117.625-4.752 14.226-3.542 21.398 4.731-.766-36.555-22.181-41.31-90.669-64.491-90.669-64.491z"/><path class="st0" d="M611 569.117c-32.243-9.082-57.427 10.061-60.438 11.075-3.037.997-5.044-1.014-31.233-6.036-26.189-5.04-44.624 16.197-62.479 22.168-24.166 8.047-50.373 14.082-84.617 7.029 0 0-60.377-15.675-59.372-12.647 1.014 3.029 63.706 36.825 103.695 42.883 24.993 3.773 89.055 7.838 145.089-11.093 55.807-18.852 120.01-54.685 120.01-54.685S643.251 578.16 611 569.117zm-418.104-7.068c-26.194-24.178-52.923-55.616-59.433-72.557-5.044-13.082-18.678-2.302-18.678-2.302-29.37 17.42-83.085 71.83-51.856 155.459 31.233 83.629 50.376 84.625 51.386 104.779 0 0 50.368-5.04 79.586-11.093 29.223-6.014 89.66-73.532 64.485-153.114 0 0-39.288 3.003-65.49-21.172z"/><path class="st0" d="M46.597 627.035c-1.989-13.934-4.474-54.267 7.467-84.107 11.942-29.858 47.779-65.713 59.725-67.701 11.946-1.972-38.326-23.369-38.326-23.369-1.985 9.953-19.905 43.296-35.833 81.118C23.706 570.797 1.808 682.277 1.808 755.931c0 73.676 35.833 33.862 33.835 5.992-1.98-27.868 12.947-120.953 10.954-134.888z"/></svg>