<svg version="1.1" id="_x36_" xmlns="http://www.w3.org/2000/svg" x="0" y="0" viewBox="0 0 349.604 800" style="width:219px" xml:space="preserve"><style>.st0{fill:#fff;stroke:#000;stroke-width:2}</style><path class="st0" d="M298.432 246.029c0 8.191.924 33.645-5.443 60.923-6.376 27.292-38.206 92.763-43.652 106.409-16.419 41.031-27.154 63.739-30.008 71.828-5.466 15.462 23.379 15.729 42.477 7.542 19.099-8.178 52.992-19.359 74.814-63.01 21.831-43.652 9.493-85.922-.9-134.581-7.992-37.331-37.288-57.302-37.288-49.111zm-71.838 100.033c-7.265-18.189-21.821-78.21-19.999-126.409 1.813-48.185.901-77.288.901-77.288s-15.466-12.729-23.653-18.18c-8.178-5.469-15.477-21.344-19.999-13.646-10.154 17.263-53.651 72.745-75.473 98.204-21.819 25.472-44.541 101.848-40.008 143.68 4.556 41.828 37.276 70.014 60.928 83.664 23.652 13.641 65.408 33.465 51.36 49.622-7.18 8.256 33.212 20.4 49.567 1.309 7.431-8.657 20.218-42.035 28.417-72.962 8.178-30.912-4.776-49.796-12.041-67.994z"/><path class="st0" d="M218.241 85.28c2.128 43.56-6.189 109.832-2.559 166.199 3.646 56.39 16.751 90.391 28.561 111.297 0 0 9.142 24.583 14.171 4.211 4.741-19.11 27.276-47.766 28.209-91.846.493-23.925 5.146-42.242 11.808-44.573 7.652-2.677 23.643 14.554 35.465 30.923-7.267-86.391-76.383-179.141-98.215-203.696-21.818-24.547-18.098 13.742-17.44 27.485zm-88.029 373.535c-16.836-8.859-31.83-19.092-57.284-39.091-25.475-20.008-38.197-41.832-37.296-87.294.9-45.477 32.74-110.952 39.107-124.589 6.367-13.646 1.822-49.101-1.811-44.555-3.644 4.542-26.376 27.269-40.929 44.555-14.556 17.267-38.197 70.931-29.098 145.5 9.087 74.565 91.388 133.208 135.028 131.398 28.46-1.189 11.064-16.024-7.717-25.924zM89.283 191.468s11.831-15.457 17.286-21.829c5.446-6.353 22.734-28.191 24.556-37.276 1.82-9.094 4.543-45.467 0-45.467-4.556 0-46.386 50.926-46.386 61.831-.001 10.915 7.276 32.734 4.544 42.741zm79.083-97.753c5.478 4.543 17.297 23.187 30.953 33.185 13.632 10.011 9.988 1.824 11.822-16.36 1.811-18.189-8.178-54.561-14.554-65.471-6.367-10.914-13.632-26.376-27.276-10.914-13.644 15.457-22.743 34.558-25.466 42.739-2.72 8.182.912 42.74.912 42.74 7.277-10.914 18.166-30.461 23.609-25.919z"/><path class="st0" d="M204.906 41.725s5.619 21.915 5.619 14.751c0-22.477 13.754-13.231 11.944-16.857-1.824-3.644-11.615-32.917-20.416-37.285-6.991-3.46-30.404 21.114-28.055 19.718 18.967-11.236 21.775 0 30.908 19.673zM182.03 510.654c-11.81 4.547-30.92-15.452-30.92-15.452L153.856 798l35.463-18.193s-.921-189.142-.921-215.518c-.001-26.367 5.466-58.178-6.368-53.635z"/></svg>