<svg version="1.1" id="_x31_1" xmlns="http://www.w3.org/2000/svg" x="0" y="0" viewBox="0 0 651.154 800" xml:space="preserve"><style>.st0{fill:#fff;stroke:#000;stroke-width:2}</style><path class="st0" d="M350.053 405.181c21.8 28.274 27.53 43.21 30.19 64.931 2.796 22.797 32.979 5.956 32.979 5.956 52.636-27.372 66.743-33.034 109.834-95.829 43.09-62.795 45.546-82.49 38.161-153.892-7.385-71.416-52.932-123.127-98.479-134.206-45.564-11.074-61.568-7.383-67.725-19.695-3.816-7.631 2.062-3.235-8.614 13.551-8.623 13.537-70.175 36.932-88.642 62.781-18.467 25.854-24.914 52.167-24.914 52.167s63.536 85.611 64.315 110.341c1.24 39.395-9.387 68.263-13.077 75.646-3.69 7.387 16.202 5.596 25.972 18.249z"/><path class="st0" d="M366.704 459.032c-10.161-23.091-23.16-53.594-51.243-57.916-29.257-4.511-65.959 4.06-95.26 7.443-32.014 3.678-82.299-1.045-102.185-20.929-6.157-6.158-16.548 14.871-24.618 29.54-6.531 11.87-19.701 8.621-19.701 8.621-6.492-9.385-9.848-14.77-11.087-3.701-1.551 13.96 3.696 24.629 24.618 52.945 20.934 28.316 103.458 91.451 161.28 93.574 41.182 1.505 66.744-14.766 93.825-35.694 17.282-13.353 25.896-27.663 28.884-34.488 5.504-8.322 8.498-9.808-4.513-39.395z"/><path class="st0" d="M107.915 371.494c2.458-9.85 8.774 13.582 37.592 21.044 32.584 8.436 11.903-2.444 11.903-2.444-12.315-14.784-36.944-30.792-54.166-46.796-17.233-16.013-61.305-37.07-86.186-86.181-11.622-22.932-14.771-41.858-14.771-41.858s-4.95 46.455 12.278 94.471c17.243 48.02 62.822 97.586 66.519 101.292 3.683 3.682 24.371-29.679 26.831-39.528zm18.248-28.073c13.543 24.62 65.713 56.508 65.713 56.508 16.006 3.701 75.45-10.098 97.267-9.836 30.019.35 26.122-12.901 32.136-34.746 4.978-18.084 9.123-56.848-19.826-94.535-40.361-52.563-92.755-117.779-135.435-139.126-18.449-9.214-33.23-4.916-33.23-4.916s-12.32-18.466-23.385-8.621c-11.087 9.85-4.934 100.951-4.934 126.805-.001 25.858 8.152 83.838 21.694 108.467zm382.121 184.551c49.247-5.735 68.269-23.888 88.638-50.478 24.749-32.316 50.014-26.696 19.699-39.39-22.37-9.376-68.943 1.234-96.028 12.317-34.598 14.14-48.561 1.933-58.267 10.264-8.617 7.383-37.18 23.805-61.036 29.421 0 0 17.546 11.926 31.906 21.868 12.95 8.974 47.746 19.192 75.088 15.998z"/><path class="st0" d="M617.461 432.553s26.253 9.242 17.627 20.326c-8.608 11.083-18.466 14.775-44.324 49.249-25.84 34.474-96.028 40.619-124.347 31.998l-51.084-23.667s29.47 34.387 78.181 50.759c34.969 11.751 91.093-1.224 123.108-27.092 32.009-25.844 35.403-84.354 31.713-96.661-3.701-12.308-30.874-4.912-30.874-4.912zm-12.634-230.205c-22.168 28.316-14.009 52.549-28.78 91.934-14.776 39.404-50.53 112.224-91.154 146.275l-9.919 11.645s23.467-9.169 59.161-33.798c45.552-41.871 83.719-78.799 99.718-160.055 16.009-81.252-14.76-131.73-11.07-121.88 3.697 9.846 4.201 37.559-17.956 65.879z"/><path class="st0" d="M573.536 262.05s6.153-18.471 9.843-33.25c3.701-14.775 12.321-27.083 28.32-52.94 16.005-25.854 2.467-56.623-2.462-66.477-4.928-9.85-27.086-27.078-27.086-27.078s-7.391 22.157-18.466 28.307c-11.086 6.158-26.236 22.249-26.236 22.249 17.231 22.162 41.012 103.331 36.087 129.189zM429.489 76.141c19.7-1.229 65.247 11.079 98.49 44.32 6.157-32.017-56.633-103.409-65.241-109.573-8.62-6.154 1.222 7.387-7.386 19.7-8.619 12.312-25.863 45.553-25.863 45.553zM53.87 288.672c19.701 20.933 41.424 42.455 49.133 38.603 1.398-.704-13.312-68.926-10.845-91.083 2.463-22.167-.811-59.513-.811-59.513-11.087-7.383-43.513-3.282-54.588-3.282-11.091 0-17.243 4.93-27.085-3.691-9.848-8.612-7.386 20.929 6.162 55.407 13.537 34.47 18.335 42.626 38.034 63.559zm175.459-129.834l33.693 30.166s18.741-34.074 28.583-51.302c9.848-17.242 49.236-34.484 73.867-45.562 24.622-11.074 15.461-21.039 11.086-28.311-5.132-8.497-28.325-11.079-39.4-20.929-11.082-9.845-.905-21.476-16.004-16.003-17.419 6.301-44.324 39.395-52.95 46.782-8.613 7.388-41.336 56.844-38.875 85.159zM383.038 56.359l11.974.074s3.701 11.084 11.087 13.551c7.391 2.462 16.005 3.696 17.244 0 1.217-3.691 17.94-26.259 24.618-43.086 3.048-7.678-18.472-22.162-25.857-24.624-7.397-2.463-19.7 12.312-27.092 22.162-7.385 9.85-26.01 24.211-26.01 24.211 11.074 1.222 14.036 7.712 14.036 7.712zm-161.203 93.237c9.848-22.162 13.144-45.134 4.518-67.292-8.614-22.176-7.385-27.096-7.385-30.792 0-3.691-11.086 9.859-14.771 34.484-3.701 24.616-7.151 42.653-7.151 42.653l24.789 20.947zm-53.563-37.784c7.385 4.92 21.762 13.334 21.762 13.334 0-13.536-25.242-53.93-31.401-67.471-6.151-13.551-6.151 1.234-15.999 14.77-9.847 13.551-16.471 25.325-16.471 25.325l12.633 10.535s22.091-1.417 29.476 3.507zm33.463-47.118l-34.488-9.486s22.172 35.703 25.863 47.652l8.625-38.166zm38.187 33.283c.005.097-.048.244-.028.327.593 2.37.545 1.878.028-.327zm0 0c-.25-5.68 27.054-35.376 27.054-35.376s-15.995-7.392-30.772-12.313c-14.776-4.929-13.57.12-7.396 13.542 5.406 11.745 9.808 28.577 11.114 34.147zm153.456 397.168c-4.934-1.634-27.907 32.021-27.907 32.021l19.694 268.375L426.209 798l-23.805-280.693s-4.101-20.514-9.026-22.162z"/></svg>