<!--?xml version="1.0" encoding="utf-8"?-->
<!-- Generator: Adobe Illustrator 22.1.0, SVG Export Plug-In . SVG Version: 6.00 Build 0)  -->
<svg version="1.1" id="_x36_" xmlns="http://www.w3.org/2000/svg" xmlns:xlink="http://www.w3.org/1999/xlink" x="0px" y="0px" viewBox="0 0 349.604 800" style="width: 219px;" xml:space="preserve">
<style type="text/css">
	.st0{fill:white; stroke:black; stroke-width:2;}
</style>
<g>
	<path class="st0" d="M298.432,246.029c0,8.191,0.924,33.645-5.443,60.923c-6.376,27.292-38.206,92.763-43.652,106.409
		c-16.419,41.031-27.154,63.739-30.008,71.828c-5.466,15.462,23.379,15.729,42.477,7.542c19.099-8.178,52.992-19.359,74.814-63.01
		c21.831-43.652,9.493-85.922-0.9-134.581C327.728,257.809,298.432,237.838,298.432,246.029z"></path>
	<path class="st0" d="M226.594,346.062c-7.265-18.189-21.821-78.21-19.999-126.409c1.813-48.185,0.901-77.288,0.901-77.288
		s-15.466-12.729-23.653-18.18c-8.178-5.469-15.477-21.344-19.999-13.646c-10.154,17.263-53.651,72.745-75.473,98.204
		c-21.819,25.472-44.541,101.848-40.008,143.68c4.556,41.828,37.276,70.014,60.928,83.664c23.652,13.641,65.408,33.465,51.36,49.622
		c-7.18,8.256,33.212,20.4,49.567,1.309c7.431-8.657,20.218-42.035,28.417-72.962C246.813,383.144,233.859,364.26,226.594,346.062z"></path>
	<path class="st0" d="M218.241,85.28c2.128,43.56-6.189,109.832-2.559,166.199c3.646,56.39,16.751,90.391,28.561,111.297
		c0,0,9.142,24.583,14.171,4.211c4.741-19.11,27.276-47.766,28.209-91.846c0.493-23.925,5.146-42.242,11.808-44.573
		c7.652-2.677,23.643,14.554,35.465,30.923c-7.267-86.391-76.383-179.141-98.215-203.696
		C213.863,33.248,217.583,71.537,218.241,85.28z"></path>
	<path class="st0" d="M130.212,458.815c-16.836-8.859-31.83-19.092-57.284-39.091c-25.475-20.008-38.197-41.832-37.296-87.294
		c0.9-45.477,32.74-110.952,39.107-124.589c6.367-13.646,1.822-49.101-1.811-44.555c-3.644,4.542-26.376,27.269-40.929,44.555
		c-14.556,17.267-38.197,70.931-29.098,145.5c9.087,74.565,91.388,133.208,135.028,131.398
		C166.389,483.55,148.993,468.715,130.212,458.815z"></path>
	<path class="st0" d="M89.283,191.468c0,0,11.831-15.457,17.286-21.829c5.446-6.353,22.734-28.191,24.556-37.276
		c1.82-9.094,4.543-45.467,0-45.467c-4.556,0-46.386,50.926-46.386,61.831C84.738,159.642,92.015,181.461,89.283,191.468z"></path>
	<path class="st0" d="M168.366,93.715c5.478,4.543,17.297,23.187,30.953,33.185c13.632,10.011,9.988,1.824,11.822-16.36
		c1.811-18.189-8.178-54.561-14.554-65.471c-6.367-10.914-13.632-26.376-27.276-10.914c-13.644,15.457-22.743,34.558-25.466,42.739
		c-2.72,8.182,0.912,42.74,0.912,42.74C152.034,108.72,162.923,89.173,168.366,93.715z"></path>
	<path class="st0" d="M204.906,41.725c0,0,5.619,21.915,5.619,14.751c0-22.477,13.754-13.231,11.944-16.857
		c-1.824-3.644-11.615-32.917-20.416-37.285c-6.991-3.46-30.404,21.114-28.055,19.718C192.965,10.816,195.773,22.052,204.906,41.725
		z"></path>
	<path class="st0" d="M182.03,510.654c-11.81,4.547-30.92-15.452-30.92-15.452L153.856,798l35.463-18.193
		c0,0-0.921-189.142-0.921-215.518C188.397,537.922,193.864,506.111,182.03,510.654z"></path>
</g>
</svg>
