<!--?xml version="1.0" encoding="utf-8"?-->
<!-- Generator: Adobe Illustrator 22.1.0, SVG Export Plug-In . SVG Version: 6.00 Build 0)  -->
<svg version="1.1" id="_x34_" xmlns="http://www.w3.org/2000/svg" xmlns:xlink="http://www.w3.org/1999/xlink" x="0px" y="0px" viewBox="0 0 723.209 800" style="enable-background:new 0 0 723.209 800;" xml:space="preserve">
<style type="text/css">
	.st0{fill: #2A5770;}
</style>
<g>
	<path class="st0" d="M360.149,431.077c12.085-1.014,40.294,2.015,51.369,12.072c11.088,10.096,45.664,40.972,49.38,51.381
		c1.279,3.608,17.124-11.241,24.17-19.304c7.059-8.047,37.273-38.113,51.386-60.259c14.108-22.168,45.333-38.3,58.432-49.393
		c13.09-11.075-14.104-1.993-29.227-0.997c-15.096,0.997-65.473-6.031-104.761,5.04c-44.332,12.503-77.576,30.232-100.749,49.371
		C355.601,422.722,348.046,432.074,360.149,431.077z"></path>
	<path class="st0" d="M68.983,432.074c33.243,27.225,50.737,31.725,53.762,31.725c3.021,0-0.37-18.617-0.37-18.617
		c-4.03-11.076-5.166-37.93-0.126-55.037c5.044-17.146-36.142-97.106-29.092-144.445c2.815-18.935,8.055-44.336,18.134-57.44
		c10.079-13.086-49.366,37.282-64.476,86.658C31.7,324.267,35.726,404.888,68.983,432.074z"></path>
	<path class="st0" d="M116.326,323.27c7.059,27.207,16.894,37.804,15.875,52.918c0,0,17.424-9.953,23.391-17.415
		c9.948-12.42-7.459-109.983-3.995-150.36c2.493-29.114,14.1-58.432-1.01-51.382c-15.114,7.05-37.282,52.387-44.332,74.555
		C99.201,253.763,109.28,296.067,116.326,323.27z"></path>
	<path class="st0" d="M256.624,175.135c-23.16-2.024-63.941,28.552-86.101,53.745l-5.971,10.453c0,0-1.88,58.767,5.174,42.635
		c7.054-16.115,27.795-33.966,41.303-41.308c32.656-17.751,36.264-36.267,53.405-53.396
		C281.56,170.117,279.801,177.145,256.624,175.135z"></path>
	<path class="st0" d="M248.303,360.557c0,0,19.148-42.326,21.167-68.511c2.011-26.193-11.084-77.575-12.098-80.604
		c-1.01-3.029-9.069,11.084-9.069,11.084c-7.045,9.06-27.194,21.141-43.313,32.234c-16.119,11.093-29.222,25.193-33.248,44.332
		c-4.03,19.139-3.695,53.667-4.704,56.696C166.032,358.816,204.367,348.319,248.303,360.557z"></path>
	<path class="st0" d="M477.012,213.453c-36.272-6.032-100.017,57.753-87.998,68.68c33.257,30.232,44.293,84.603,47.278,83.607
		c10.688-3.569,66.909-74.712,71.944-98.89C513.28,242.67,513.28,219.51,477.012,213.453z"></path>
	<path class="st0" d="M451.719,362.754c0,0,6.881-1.785,22.277-5.227c21.023-4.726,59.437-4.021,59.437-4.021
		s11.075-24.2,9.073-46.347c-2.028-22.168-23.913-34.423-31.25-18.125C502.488,308.509,469.854,349.669,451.719,362.754z"></path>
	<path class="st0" d="M469.962,178.203c-45.337-7.059-115.862,58.432-121.916,79.586l31.011,16.38
		c9.065-22.146,41.79-49.001,53.258-56.234c18.913-11.946,40.668-11.541,40.668-11.541S515.304,185.231,469.962,178.203z"></path>
	<path class="st0" d="M280.019,249.785c11.084-5.039,38.727-1.123,45.785-4.978c5.475-2.985,56.091-66.012,67.065-84.207
		c17.047-28.265,15.049-49.167,15.049-49.167s-12.038-8.272-47.296,8.865c-35.254,17.116-81.479,64.063-91.557,83.202
		L280.019,249.785z"></path>
	<path class="st0" d="M455.854,503.614c-2.02-5.04-41.304-44.314-58.45-55.408c-17.12-11.093-49.358-3.024-49.358-3.024
		s-6.036-6.058-7.046-16.137c-1.005-10.057-52.396-40.289-76.566-51.36c-28.761-13.19-92.693-18.147-118.891,1.988
		c-26.189,20.175-13.647,70.708-8.055,88.668c14.109,45.35,70.521,92.689,96.706,98.725c26.206,6.053,96.728,1.036,134.009-14.1
		C405.482,537.871,457.86,508.653,455.854,503.614z"></path>
	<path class="st0" d="M345.026,415.963c0,0,52.378-40.31,75.556-42.304c0,0-12.081-58.453-42.299-85.661
		c-30.237-27.203-66.513-31.229-76.588-31.229c-10.066,0-23.152,2.011-22.164,8.068c2.659,15.923-2.498,70.046-20.91,96.919
		C258.621,361.758,335.966,394.81,345.026,415.963z M383.322,320.246c4.026,7.072,13.095,14.1,7.046,16.11
		c-6.058,2.032-11.093,2.032-14.113-1.988C369.831,325.781,379.292,313.196,383.322,320.246z M379.275,353.506
		c10.074,9.061-7.041,18.121-13.099,11.071C360.149,357.528,370.554,345.626,379.275,353.506z M356.659,393.195
		c-8.429,3.482-17.216-2.032-14.831-10.222C344.83,372.563,365.08,389.731,356.659,393.195z M344.452,337
		c-12.516-10.078-6.502-21.606,5.009-12.337C361.981,334.759,356.976,347.074,344.452,337z M349.06,294.057
		c14.1,10.074-3.016,20.153-12.089,14.1C327.911,302.099,337.241,285.614,349.06,294.057z M316.814,280.949
		c3.011,4.025-13.095,13.107-17.12,3.029C295.659,273.899,305.417,265.748,316.814,280.949z M301.696,352.488
		c-9.065-1.014-17.325-17.002-4.03-15.096C311.77,339.385,310.765,353.506,301.696,352.488z M306.739,317.217
		c-15.384-9.226-5.044-18.125,6.049-11.071C323.876,313.196,311.77,320.246,306.739,317.217z M322.867,364.577
		c-4.03-11.071,14.374-10.261,20.135-2.01C350.07,372.646,326.892,375.653,322.867,364.577z"></path>
	<path class="st0" d="M165.697,221.508c4.03-8.055,61.9-48.284,74.999-56.33c13.099-8.064,90.226-130.046,96.275-145.159
		c6.031-15.11,21.15-24.179-4.03-13.112C307.744,18,167.712,173.155,167.712,173.155S160.288,232.326,165.697,221.508z"></path>
	<path class="st0" d="M256.362,165.095l25.646,4.552c11.079-15.105,56.473-49.145,78.637-59.22
		c22.159-10.07,48.77-7.454,48.77-7.454s3.107,6.706,0.096-18.482c-3.034-25.18-48.371-80.6-52.4-80.6
		c-4.03,0-4.03,5.044-15.101,28.217C330.922,55.286,272.49,146.961,256.362,165.095z"></path>
	<path class="st0" d="M410.521,142.931c-5.566,12.233-31.464,50.12-53.41,75.561l-24.836,31.79c0,0,8.508,6.014,11.45,1.493
		c13.934-21.398,64.777-73.572,92.985-78.62c28.217-5.031,42.321-6.045,55.416,2.019c13.099,8.068-1.584,31.812-1.584,31.812
		c9.06,10.079,28.374,2.485,49.275,6.467c7.977,1.514-13.447-145.072-13.447-145.072c-25.193-12.089-107.794,31.233-107.794,31.233
		S419.873,122.382,410.521,142.931z"></path>
	<path class="st0" d="M596.052,267.698c-2.098-35.79-86.675-58.941-79.756-40.145c6.737,18.269,4.03,35.276,4.03,40.31
		c0,0,23.169,8.047,30.236,26.194c7.041,18.143-6.054,61.46-6.054,61.46l10.079-1.018
		C554.588,354.499,598.067,301.955,596.052,267.698z"></path>
	<path class="st0" d="M688.593,295.049c-29.227-28.2-72.54-33.239-79.607-33.239c0,0-12.068,60.76-43.292,93.003
		c0,0,27.173-5.348,40.284-0.314c13.091,5.039-7.785,16.572-19.879,28.661c-12.09,12.107-24.775,15.301-33.84,26.394
		c-9.069,11.075-76.587,88.503-81.622,94.56c-5.035,6.032,22.394-2.511,22.394-2.511c36.259-13.086,113.957-74.568,135.111-100.757
		c21.145-26.189,73.545-69.507,88.646-71.539C731.906,327.317,706.539,312.386,688.593,295.049z"></path>
	<path class="st0" d="M601.931,246.713c2.942,2.925,40.302,14.082,39.301,11.075c-1.01-3.029,9.065-89.664,11.093-110.828
		c2.002-21.158-65.438-9.6-81.605-8.064c-21.172,2.024-22.168,6.045-24.183,21.163l6.049,54.411
		C552.586,214.471,584.806,229.576,601.931,246.713z"></path>
	<path class="st0" d="M578.775,461.293c-5.04,5.039-31.25,26.211-58.449,38.278c-27.203,12.111-66.618,20.946-66.618,20.946
		c-32.238,29.235-118.761,55.572-134.871,57.644c-31.233,4.043,47.774,19.988,92.68,16.111c44.275-3.812,67.514-26.167,86.64-31.207
		c19.148-5.039,36.29,12.09,54.428,4.026c51.151-22.73,79.79,4.704,117.625-4.752c14.226-3.542,21.398,4.731-0.766-36.555
		C647.263,484.474,578.775,461.293,578.775,461.293z"></path>
	<path class="st0" d="M611,569.117c-32.243-9.082-57.427,10.061-60.438,11.075c-3.037,0.997-5.044-1.014-31.233-6.036
		c-26.189-5.04-44.624,16.197-62.479,22.168c-24.166,8.047-50.373,14.082-84.617,7.029c0,0-60.377-15.675-59.372-12.647
		c1.014,3.029,63.706,36.825,103.695,42.883c24.993,3.773,89.055,7.838,145.089-11.093c55.807-18.852,120.01-54.685,120.01-54.685
		S643.251,578.16,611,569.117z"></path>
	<path class="st0" d="M192.896,562.049c-26.194-24.178-52.923-55.616-59.433-72.557c-5.044-13.082-18.678-2.302-18.678-2.302
		c-29.37,17.42-83.085,71.83-51.856,155.459c31.233,83.629,50.376,84.625,51.386,104.779c0,0,50.368-5.04,79.586-11.093
		c29.223-6.014,89.66-73.532,64.485-153.114C258.386,583.221,219.098,586.224,192.896,562.049z"></path>
	<path class="st0" d="M46.597,627.035c-1.989-13.934-4.474-54.267,7.467-84.107c11.942-29.858,47.779-65.713,59.725-67.701
		c11.946-1.972-38.326-23.369-38.326-23.369c-1.985,9.953-19.905,43.296-35.833,81.118C23.706,570.797,1.808,682.277,1.808,755.931
		c0,73.676,35.833,33.862,33.835,5.992C33.663,734.055,48.59,640.97,46.597,627.035z"></path>
</g>
</svg>
