<!--?xml version="1.0" encoding="utf-8"?-->
<!-- Generator: Adobe Illustrator 22.1.0, SVG Export Plug-In . SVG Version: 6.00 Build 0)  -->
<svg version="1.1" id="_x32_" xmlns="http://www.w3.org/2000/svg" xmlns:xlink="http://www.w3.org/1999/xlink" x="0px" y="0px" viewBox="0 0 800 617.663" style="enable-background:new 0 0 800 617.663;" xml:space="preserve">
<style type="text/css">
	.st0{fill:white; stroke:black; stroke-width:2;}
</style>
<g>
	<path class="st0" d="M310.345,414.155c-14.679-5.648-53.079-12.435-53.079-12.435s-15.805,5.647-14.686,28.247
		c0.565,11.342,25.977,28.225,42.922,32.746c16.938,4.517,38.043,6.208,51.954-2.233c25.985-15.83,31.628-40.682,31.628-40.682
		C363.44,420.928,325.039,419.798,310.345,414.155z"></path>
	<path class="st0" d="M245.975,401.72c13.542-10.165,21.455-5.644,32.746-2.251c11.301,3.396,82.459,20.329,90.361,14.686
		c7.899-5.648,16.938-25.977,16.938-25.977s-11.291-6.788-21.456-9.039c-10.165-2.27-15.812-16.938-15.812-16.938
		c-11.299,3.378-74.543,18.064-112.943,19.19c-38.412,1.144-100.53-4.521-126.504-11.309c-25.988-6.773-25.988-6.773-25.988-6.773
		s67.773,28.247,82.46,35.035c14.683,6.773,63.251,29.354,66.636,31.624C235.81,432.233,232.415,411.885,245.975,401.72z"></path>
	<path class="st0" d="M90.099,318.146c12.97,11.837,62.137,55.345,84.707,55.345c22.592,0,72.771,0.813,93.09-1.457
		c0,0,26.645-4.186-10.63-8.725c-37.275-4.499-77.931-24.833-101.653-45.162c-23.725-20.33-81.326-44.037-101.656-56.471
		C33.632,249.258,2,208.58,2,215.368C2,222.137,64.123,294.439,90.099,318.146z"></path>
	<path class="st0" d="M144.323,370.081l-23.725-16.919l-9.024-3.396c0,0-41.797-4.518-38.42,0
		c3.396,4.521,18.082,12.434,27.11,13.542C109.307,364.453,144.323,370.081,144.323,370.081z"></path>
	<path class="st0" d="M66.385,261.674c0,0,55.353,29.368,68.895,36.142c13.561,6.769,55.338,37.267,68.898,44.037
		c13.561,6.787,85.246,23.445,85.246,23.445s13.169-0.42,27.855-3.817c0,0-15.967-2.672-30.653-10.571
		c-14.686-7.913-74.535-39.533-98.268-48.577c-23.707-9.039-106.167-54.22-137.787-70.031
		c-31.628-15.809-28.247-12.538-20.329-1.248C38.153,242.345,66.385,261.674,66.385,261.674z"></path>
	<path class="st0" d="M585.934,354.288c5.654-12.435,16.945-50.81-4.511-59.849c-21.459-9.039-42.922-6.788-60.986,7.894
		c-18.078,14.687-53.087,23.725-73.424,29.373c-20.323,5.643-44.055,10.146-60.993,14.686
		c-16.938,4.517-24.851,10.165-25.977,15.808c-1.565,7.829,18.082,15.794,29.361,21.455c11.302,5.648,37.286,20.334,49.71,33.894
		c12.416,13.542,62.111,4.499,89.222-10.184C555.439,392.699,580.297,366.723,585.934,354.288z"></path>
	<path class="st0" d="M375.863,141.94c-46.325-35.016-64.385-53.076-66.655-58.723c-2.24-5.644-14.668,20.33-38.393,33.872
		c-23.714,13.561-71.146,56.475-51.95,122.004c19.204,65.492,60.99,94.865,77.927,106.155c16.946,11.309,48.577,6.788,48.577,6.788
		c9.032-4.522,73.52-18.484,89.229-24.866c21.551-8.743,17.561-46.871,13.962-65.724
		C439.687,215.017,422.163,176.956,375.863,141.94z"></path>
	<path class="st0" d="M447.014,217.619c10.165,24.851,18.167,81.902,9.135,103.339c0,0,32.661-6.19,62.03-26.519
		c17.111-11.856,38.393-13.56,45.174-13.56c6.769,0,11.298-3.392,30.494-31.621c19.197-28.262,36.142-134.421,33.876-155.876
		c-2.251-21.455-16.93-71.158-23.711-42.911c-6.78,28.225-72.291,79.053-96.016,92.595
		C484.289,156.634,436.849,192.768,447.014,217.619z"></path>
	<path class="st0" d="M783.595,167.924c-23.714,6.781-42.91,48.569-55.345,67.773c-12.428,19.189-37.268,37.267-53.08,47.432
		c-15.819,10.165-72.291,53.094-72.291,63.263c0,10.165-27.11,38.375-27.11,38.375s41.796-5.628,64.384-19.189
		c22.592-13.542,70.032-66.636,85.844-88.092c15.801-21.459,38.401-68.906,55.339-91.491
		C798.281,163.407,807.313,161.148,783.595,167.924z"></path>
	<path class="st0" d="M514.787,423.194c0,0,11.291,13.542,28.225,12.416c16.953-1.126,55.357-6.769,73.435-18.06
		c18.064-11.309,32.746-45.185,32.746-45.185c-16.952,13.543-82.463,23.711-82.463,23.711
		C563.341,396.076,524.952,423.194,514.787,423.194z"></path>
	<path class="st0" d="M592.714,291.043c9.047,7.899,13.549,24.852,11.298,36.127c0,0,48.569-40.663,67.766-50.828
		c19.203-10.146,49.691-39.519,61-59.849c11.291-20.333,6.769-13.542,6.769-13.542s-77.938,40.641-93.746,51.935
		C629.988,266.196,592.714,291.043,592.714,291.043z"></path>
	<path class="st0" d="M637.895,123.88c0,0-7.36,62.469-17.543,90.712c-10.165,28.229-26.505,54.977-28.763,60.643
		c-2.259,5.644-5.654,7.895-5.654,7.895s51.968-29.351,53.087-33.872c1.144-4.521,15.819-48.577,16.938-74.553
		c1.134-25.985-7.898-85.841,16.953-115.213c24.84-29.362-6.781,2.263-18.071,18.082C643.542,93.382,637.895,123.88,637.895,123.88z
		"></path>
	<path class="st0" d="M636.762,103.547c-1.207,5.525,3.392-5.644,3.392-5.644s12.435-37.275,30.487-47.432c0,0,0-11.302,0-21.47
		c0-10.169-22.581,11.294-25.977,12.42c-3.385,1.134-15.809,20.334-15.809,20.334C629.988,65.146,638.175,97.11,636.762,103.547z"></path>
	<path class="st0" d="M439.115,196.16c0,0,25.969-40.66,50.828-56.472c24.833-15.809-27.11-81.323-29.38-88.103
		c-2.259-6.769-19.196-40.656-30.495-48.565c-11.283-7.902-24.851,18.074-36.142,27.11c-11.291,9.039-49.695,64.378-51.954,72.291
		C339.887,109.703,419.919,150.979,439.115,196.16z"></path>
	<path class="st0" d="M503.493,131.782c0,0,36.142-24.858,40.652-35.023c4.54-10.165,6.781-15.793,1.126-45.174
		c-5.636-29.361-23.714-30.491-27.091-10.165c-3.403,20.334-30.506,33.883-30.506,33.883
		C497.838,93.382,505.744,113.715,503.493,131.782z"></path>
	<path class="st0" d="M232.415,297.816c0-4.521-38.393-83.574-24.851-117.464c13.561-33.89,20.34-50.835,41.796-62.126
		c21.456-11.302,9.032-19.197,9.032-19.197c-7.906-13.553-27.11-32.765-37.267-50.828c-10.165-18.071-10.165-28.228-10.165-28.228
		s-33.883,24.833-38.393,47.432c-4.529,22.585-4.529,84.7,12.416,138.923C201.92,260.549,232.415,305.043,232.415,297.816z"></path>
	<path class="st0" d="M184.983,263.944c-18.071-16.956-59.867-65.533-86.97-92.632c-27.11-27.102-70.726-63.097-68.903-58.742
		c4.108,9.841,33.887,38.408,45.178,75.694c11.301,37.286,38.378,62.03,49.669,71.069c11.298,9.039,129.914,64.459,129.914,64.459
		l-37.275-29.354C216.595,294.439,203.042,280.879,184.983,263.944z"></path>
	<path class="st0" d="M37.027,111.453c12.42,6.773,64.381,46.318,80.193,67.773c15.801,21.455,92.008,100.368,92.008,100.368
		l-38.009-87.793c-1.255-8.02-17.857-28.394-43.845-35.167c-16.38-4.281-50.824-32.753-77.927-47.44
		C22.337,94.508,24.596,104.673,37.027,111.453z"></path>
	<path class="st0" d="M293.396,86.594c9.043-11.291,10.018-25.678,16.949-13.542c9.039,15.812,28.236,21.456,28.236,21.456
		l16.952-32.753c0,0-25.995-51.95-54.22-45.178c-30.206,7.253-24.851,71.162-23.718,82.452
		C277.596,99.029,284.376,97.903,293.396,86.594z"></path>
	<path class="st0" d="M390.542,406.241c0,0-24.862,38.408-24.862,42.93c0,4.517,3.403,146.833,3.403,153.606
		c0,6.769,31.624,19.203,33.876,10.165c2.277-9.039,1.14-160.394,1.14-177.332C404.099,418.658,390.542,406.241,390.542,406.241z"></path>
	<path class="st0" d="M270.815,101.288c3.396,2.259-2.495-35.691-1.126-51.961c0.679-8.117-18.07-13.556-18.07-13.556l-9.039,33.886
		C242.58,69.657,267.431,99.029,270.815,101.288z"></path>
</g>
</svg>
