<!--?xml version="1.0" encoding="utf-8"?-->
<!-- Generator: Adobe Illustrator 22.1.0, SVG Export Plug-In . SVG Version: 6.00 Build 0)  -->
<svg version="1.1" id="_x31_0" xmlns="http://www.w3.org/2000/svg" xmlns:xlink="http://www.w3.org/1999/xlink" x="0px" y="0px" viewBox="0 0 700.094 800" style="enable-background:new 0 0 700.094 800;" xml:space="preserve">
<style type="text/css">
	.st0{fill:white; stroke:black; stroke-width:2;}
</style>
<g>
	<path class="st0" d="M591.197,256.997c-9.898,0-41.793,10.99-41.793,10.99s-14.814,6.521-40.111,24.109
		c-25.288,17.601-68.764,114.454-81.957,143.045c-13.191,28.591,17.23,53.523,29.321,56.824
		c12.097,3.298,15.756,16.873,19.062,17.963c3.302,1.102,59.585,4.728,76.987,1.102c26.389-5.493,40.686-12.096,74.778-51.689
		c34.083-39.593,24.2-97.881,16.495-145.167C636.28,266.885,601.089,256.997,591.197,256.997z"></path>
	<path class="st0" d="M256.872,364.766c2.209,61.577,57.837,93.913,87.536,106.005c29.696,12.104,81.826,20.459,90.633,20.459
		c0,0-24.205-19.797-23.103-36.288c1.102-16.499,8.807-37.393,30.792-80.288c21.994-42.886,45.093-81.369,45.093-81.369
		c-17.403-26.897-74.784-51.689-89.079-51.689c-14.292,0-39.589-1.102-49.492-5.501c-9.893-4.391-39.583-17.593-39.583-17.593
		l-7.704,2.195c0,0,2.194,12.096-4.408,21.996C290.965,252.59,254.672,303.185,256.872,364.766z"></path>
	<path class="st0" d="M657.178,90.928c-4.398-42.89-24.194-46.192-23.102-27.485c1.107,18.687-18.69,45.078-47.282,75.885
		c-28.598,30.778-20.458,92.585-26.721,112.645c0,0,16.813-5.979,28.931-7.08c12.085-1.098,58.634,6.595,67.073,69.652
		c5.128,38.335,6.598,70.018,6.598,70.018c11-16.499,39.714-59.863,35.19-147.375C694.626,174.579,661.566,133.819,657.178,90.928z"></path>
	<path class="st0" d="M464.724,188.801c-3.301,18.695-9.897,64.891-9.897,64.891s37.403,21.996,42.893,30.795
		c0,0,37.1-25.602,49.188-30.005c0,0,5.309-70.503,11.911-85.896c6.597-15.398,15.883-32.563,21.378-35.86
		c5.495-3.302-2.303-35.272,3.286-49.498c2.924-7.429-22.349-26.359-23.41-36.263c-1.103-10.332-17.029,18.284-35.734,36.991
		C505.644,102.65,468.025,170.106,464.724,188.801z"></path>
	<path class="st0" d="M619.006,86.463c17.588-27.493,2.978-42.825,15.071-45.02c12.106-2.199,22.539,14.295,22.539,14.295
		c0-6.603-29.132-61.589-29.132-52.787c0,8.799-24.194,53.885-30.792,69.282c-6.602,15.397-7.943,39.437-4.648,49.341
		C592.044,121.575,611.836,97.663,619.006,86.463z"></path>
	<path class="st0" d="M445.971,246.957c0,0,5.637-53.913,9.957-69.15c2.273-8.054,12.607-23.007,12.607-23.007
		s-56.598-30.877-63.194-25.376c-6.597,5.493,13.194,37.386,15.403,47.286C422.927,186.61,445.971,246.957,445.971,246.957z"></path>
	<path class="st0" d="M529.604,67.835c0,0-6.597-20.898-15.398-38.487c-8.786-17.597-29.685-3.305-45.078,19.788
		c-15.399,23.098-42.894,60.492-42.894,74.787l46.181,20.89C472.414,144.813,504.318,82.13,529.604,67.835z"></path>
	<path class="st0" d="M410.835,231.704l26.398,15.389c0,0-24.194-58.292-25.296-65.985
		C411.937,181.108,410.835,226.195,410.835,231.704z"></path>
	<path class="st0" d="M444.928,509.928c-0.147-5.493-10.995,5.51-10.995,5.51c-12.098,15.389-41.787,40.683-46.186,40.683
		c-4.408,0-35.924-13.268-54.634-4.473c-18.684,8.807-77.339,15.471-92.737,15.471c-15.388,0-84.95-18.571-104.742-36.16
		c-19.791-17.601,18.965,37.258,78.349,53.761c59.394,16.491,128.675,3.293,158.37-5.501
		C402.044,570.416,445.657,536.69,444.928,509.928z"></path>
	<path class="st0" d="M271.173,556.12c32.559-5.423,52.787-13.198,68.186-16.495c15.388-3.297,38.49,7.693,46.19,6.591
		c7.695-1.094,46.631-37.826,46.631-37.826l-26.329-3.141c0,0-34.598,6.879-49.996,0.288c-15.402-6.603-72.583-29.701-97.879-43.996
		c-25.292-14.3-144.066-50.587-181.449-49.494c-37.398,1.098-92.38-9.892-69.293,5.501c23.093,15.397,58.288,58.288,115.473,96.775
		C179.895,552.81,237.83,561.679,271.173,556.12z"></path>
	<path class="st0" d="M173.298,417.549c19.625,7.479,103.374,37.393,138.555,58.288c35.2,20.902,64.889,24.187,64.889,24.187
		l12.098-3.285c0,0-43.976,1.098-95.672-45.098c-51.689-46.188-47.193-93.716-46.185-104.472c0,0-62.695-45.094-86.885-54.99
		c-24.199-9.896-112.166-29.697-120.972-34.088c-8.801-4.4,2.209,20.894,12.102,38.495
		C61.12,314.175,150.196,408.75,173.298,417.549z"></path>
	<path class="st0" d="M249.114,336.611c0,0,10.026-53.292,26.451-77.422c12.697-18.658,18.333-35.56,16.5-46.192
		c-2.365-13.707-54.986-14.295-73.676-48.387c-12.797-23.32-8.801,8.794-12.106,14.303c-3.291,5.493-29.691,82.475-24.185,113.266
		C182.1,292.179,243.619,331.102,249.114,336.611z"></path>
	<path class="st0" d="M418.534,659.498c-23.772,47.803-42.526,66.338-76.977,97.864c-24.733,22.625,56.079-20.89,89.079-42.886
		c32.995-21.988,55.358-70.367,64.145-102.26c8.801-31.901,5.73-58.066,5.73-58.066
		C490.481,589.263,449.106,598.036,418.534,659.498z"></path>
	<path class="st0" d="M337.512,748.503c18.807-11.915,62.064-68.957,81.503-107.835c17.465-34.931,50.779-55.796,72.471-80.518
		c14.404-16.409,4.399-26.388,4.399-37.394l-19.817-1.201c0,0-17.886-15.685-20.07-11.286c-2.204,4.396-4.477,27.531-37.463,52.824
		c-32.985,25.297-43.257,43.256-66.705,93.835C335.779,691.53,331.57,752.264,337.512,748.503z"></path>
	<path class="st0" d="M553.799,526.424l-42.879-7.697c0,0,4.398,29.697-1.108,34.084c-5.494,4.412,3.307,23.107,6.603,47.306
		c3.301,24.192,64.885,190.248,64.885,190.248s23.087,10.99,23.087,6.599c0-4.404-62.681-166.053-61.583-199.043
		C543.9,564.927,543.9,534.12,553.799,526.424z"></path>
</g>
</svg>
