<!--?xml version="1.0" encoding="utf-8"?-->
<!-- Generator: Adobe Illustrator 22.1.0, SVG Export Plug-In . SVG Version: 6.00 Build 0)  -->
<svg version="1.1" id="_x30_" xmlns="http://www.w3.org/2000/svg" xmlns:xlink="http://www.w3.org/1999/xlink" x="0px" y="0px" viewBox="0 0 730.354 800" style="enable-background:new 0 0 730.354 800;" xml:space="preserve">
<style type="text/css">
	.st0{fill:white; stroke:black; stroke-width:2;}
</style>
<g>
	<path class="st0" d="M235.516,460.621c35.519,7.563,65.778-2.26,75.588-4.545c0,0,13.618-15.87,2.272-37.03
		c-9.822-18.339-61.99-34.021-77.102-36.294c-15.134-2.264-53.688-11.338-62.744-3.022c-9.078,8.32-9.078,34.77-3.03,44.606
		C176.547,434.171,209.584,455.1,235.516,460.621z"></path>
	<path class="st0" d="M14.77,330.583c0,0.291,0.109,0.692,0.27,1.14C14.835,330.352,14.77,329.83,14.77,330.583z"></path>
	<path class="st0" d="M167.482,433.4c12.082-3.018-4.554-6.806-4.554-6.806c-19.658,0.771-64.242-17.385-75.588-27.965
		c-11.337-10.58-34.004-23.433-46.129-34.77c-11.15-10.48-24.234-26.724-26.171-32.136c0.818,5.499,3.949,25.318,14.842,37.426
		c13.61,15.117,43.848,44.606,71.822,55.93C129.673,436.43,155.387,436.43,167.482,433.4z"></path>
	<path class="st0" d="M194.69,452.3l-21.16-11.337c0,0-12.852,1.515-29.493,0c-16.627-1.502-24.943-1.502-41.575,3.788
		c-16.637,5.29-28.731,15.112-49.904,14.355c-21.16-0.745,20.424,6.805,65.779,6.056C163.708,464.395,194.69,452.3,194.69,452.3z"></path>
	<path class="st0" d="M93.397,443.235c5.29-3.03,20.394-6.806,20.394-6.806s-6.806-3.775-12.086-4.541
		c-5.299-0.749-24.943,7.571-37.805,12.861c-12.844,5.29-25.705,6.034-12.844,9.822C63.899,458.361,88.098,446.252,93.397,443.235z"></path>
	<path class="st0" d="M93.397,358.57c0,0-14.363,0-27.974-3.03c-13.623-3.026-36.285-13.606-36.285-13.606
		c9.823,14.355,54.424,45.358,72.567,56.696c18.147,11.337,45.363,18.143,55.199,17.385c0,0-11.351-5.29-23.446-15.87
		C121.353,389.565,93.397,358.57,93.397,358.57z"></path>
	<path class="st0" d="M429.046,468.183c28.731-2.273,91.471-38.558,118.678-65.021c27.216-26.45,33.264-52.164,32.506-64.25
		c-0.736-12.104-17.372-49.142-23.42-49.891c-6.061-0.762-23.441,9.069-52.926,21.16c-29.476,12.095-120.781,68.034-134.391,85.41
		c-13.618,17.398-32.353,39.555-33.855,41.836c-1.502,2.259-7.136,11.855-7.136,11.855
		C344.372,462.135,400.314,470.452,429.046,468.183z"></path>
	<path class="st0" d="M326.355,428.798c0.706,9.788,28.387-31.243,40.483-41.836c12.108-10.58,32.737-26.885,45.572-32.175
		c12.861-5.294,1.524-34.783-3.03-40.818c-4.524-6.056-64.25-68.042-68.016-73.341c-3.788-5.29,0-7.553-38.567,18.9
		c-38.567,26.459-69.549,49.895-87.692,73.337c-11.59,14.938-5.303,36.285-5.303,36.285c23.446,5.29,72.797,16.981,92.237,27.22
		C315.723,403.558,324.84,407.612,326.355,428.798z"></path>
	<path class="st0" d="M168.227,372.18c12.866-6.056,24.19-3.03,32.51-3.788c0,0-13.611-53.678-24.957-73.332
		c-11.329-19.654-56.687-89.198-60.466-99.029c-3.775-9.831-9.831-24.199-9.831-27.212c0-3.025-13.601,3.775-25.705,17.381
		c-12.095,13.61-17.376,45.359-6.047,96.76c11.337,51.42,33.254,80.134,39.315,86.938c6.048,6.814,46.117,40.826,46.117,40.826
		C159.162,401.66,155.387,378.214,168.227,372.18z"></path>
	<path class="st0" d="M346.644,495.39c-2.055-17.263-8.32-25.696-12.095-29.48c-3.775-3.775-10.593-13.611-15.883-6.805
		c-5.29,6.805-26.45,9.078-30.996,9.078c-4.519,0-7.549,4.532-7.549,4.532c1.502,24.19,24.948,51.406,39.315,68.047
		c14.364,16.615,55.93,37.03,64.995,47.632c9.086,10.58,13.61,15.848,13.61,19.649c0,3.775,6.814-19.649-4.524-38.571
		C382.172,550.593,350.428,527.152,346.644,495.39z"></path>
	<path class="st0" d="M554.538,466.676c-19.658,0-48.389-3.03-54.437-7.571c-6.039-4.533-10.593-4.533-12.84-3.775
		c-2.273,0.745-24.96,13.611-40.073,16.636c-15.112,3.008-42.912,6.227-50.475,3.967c-7.563-2.286-33.855-9.296-33.855-9.296
		c15.121,16.615,63.915,40.849,97.927,42.364c34.025,1.51,98.276-24.19,115.669-43.09
		C593.853,447.01,574.195,466.676,554.538,466.676z"></path>
	<path class="st0" d="M269.529,184.684c-18.896,6.801-50.662,18.525-71.321,50.91c-14.512,22.736-17.533,48.28-15.283,49.795
		c2.273,1.515,1.184,5.891,10.258,27.808c5.564,13.445,8.298,29.48,12.086,24.203c5.725-8.02,10.58-17.398,30.247-37.804
		c12.792-13.297,48.559-41.366,60.475-47.627c21.047-11.059-11.338-52.16-12.84-61.991
		C281.623,180.152,288.442,177.884,269.529,184.684z"></path>
	<path class="st0" d="M512.205,300.359c0,0,14.368-6.806,27.212-12.1c12.848-5.299,25.692-15.121,27.216-8.316
		c1.515,6.805,12.095,22.675,12.095,22.675c6.039-9.065,17.394-51.402,18.143-67.281c0.758-15.878,6.047-22.679-3.017-17.385
		c-9.087,5.286-36.577,44.88-41.131,50.175C547.972,273.695,521.718,294.498,512.205,300.359z"></path>
	<path class="st0" d="M407.873,296.575c0,0,15.874,14.363,17.398,22.684c1.502,8.316,1.502,26.45,1.502,26.45l6.047-3.03
		c12.844-7.55,40.818-24.934,48.394-28.71c7.55-3.788,32.619-21.312,46.865-33.268c17.351-14.564,19.645-18.905,24.943-24.194
		c5.281-5.29,18.143-27.216,28.723-36.285c10.593-9.078-79.537,29.445-95.398,39.272
		C470.456,269.319,416.193,290.523,407.873,296.575z"></path>
	<path class="st0" d="M352.692,216.441c-6.818,14.36-2.264,16.632-2.264,16.632c6.039,12.852,42.333,49.142,50.64,56.696
		c0,0,32.345-14.198,58.05-26.293c25.705-12.095,77.02-35.845,92.289-44.479c7.258-4.11,13.941-48.467-1.328-89.625
		c-9.078-24.464-8.495-35.972-18.983-24.822c-20.185,21.495-79.946,29.471-119.444,52.921
		C378.24,177.309,359.497,202.078,352.692,216.441z"></path>
	<path class="st0" d="M727.343,261.482c0,3.78-3.592,4.511-8.769,13.166c-21.16,35.532-49.974,29.59-71.56,50.575
		c-27.229,26.459-65.269,51.489-65.269,51.489c-8.316,18.143-39.873,44.322-54.237,53.409c0,0,67.503-15.444,112.866-63.066
		c19.815-20.82,81.23-71.242,85.776-86.355C730.682,265.58,727.343,257.704,727.343,261.482z"></path>
	<path class="st0" d="M583.261,316.986c0,0,6.849,8.764,5.312,26.158c-1.524,17.625-4.637,23.237-4.637,23.237
		c15.125-8.32,62.073-41.832,76.428-75.1c9.387-21.726,3.03-5.295-12.082,2.272C633.156,301.103,587.039,313.198,583.261,316.986z"></path>
	<path class="st0" d="M692.125,294.306c18.891-13.606,21.264-19.545,21.264-19.545c-6.035,5.29-40.922,10.475-40.922,10.475
		c-3.784,11.338-9.823,21.165-18.129,28.731C654.337,313.968,673.224,307.913,692.125,294.306z"></path>
	<path class="st0" d="M581.745,310.181c0,0,56.7-18.9,66.536-23.433c9.831-4.532-55.185-3.788-55.185-3.788L581.745,310.181z"></path>
	<path class="st0" d="M88.098,344.959c-8.32-14.376-29.48-72.579-29.48-106.596c0,0-21.173-24.19-21.173-43.848
		s-4.532-88.454-7.563-109.622c-3.026-21.165-10.589-12.853-20.411,25.71c-9.827,38.558-13.758,94.453,10.589,152.708
		C38.743,308.008,88.098,344.959,88.098,344.959z"></path>
	<path class="st0" d="M76.003,177.13c6.709-10.319,19.657-15.121,19.657-15.121c0.745-13.611-9.069-42.333-17.385-61.991
		c-8.321-19.658-20.429-34.017-10.593-51.411c9.823-17.381-7.562-17.381-15.125,23.433c-7.558,40.827-14.355,117.076,7.563,149.695
		C60.12,221.736,66.167,192.251,76.003,177.13z"></path>
	<path class="st0" d="M141.777,218.706l19.24,28.178c17.272-17.929,34.369-87.744,49.542-125.706
		c9.078-22.671,21.931-76.349,27.208-87.687c5.303-11.338-3.017-2.264-3.017-2.264c-25.692,13.602-40.818,43.844-51.398,78.618
		C172.759,144.62,152.357,209.636,141.777,218.706z"></path>
	<path class="st0" d="M104.734,155.967c0,0,9.823,3.775,13.602,21.917c3.775,18.147,15.878,36.29,19.657,31.753
		c3.784-4.541,22.684-55.947,22.684-55.947c-1.515-5.29-43.099-67.285-52.921-84.661c-9.827-17.394-17.398-22.683-18.9-36.29
		c0,0-14.803,22.014-14.803,29.576c0,7.558,9.509,34.683,16.305,48.289C97.163,124.209,104.734,155.967,104.734,155.967z"></path>
	<path class="st0" d="M213.599,142.352c-12.736,34.152-35.536,94.497-35.536,94.497c-5.086,8.703-9.835,18.147-11.338,20.415
		c-1.524,2.264,9.574,16.17,9.574,16.17c0.653-16.597,17.507-47.039,27.464-56.993c7.567-7.558,25.705-24.19,25.705-24.19
		L227.944,85.66C227.944,85.66,216.929,133.387,213.599,142.352z"></path>
	<path class="st0" d="M239.295,186.2l0.07,2.255c0,0,8.246-1.502,21.848-7.545c13.606-6.052,25.714-9.831,25.714-9.831
		s1.389,14.882,8.877,30.651c13.362,28.196,13.941,33.198,13.941,33.198c2.656-15.931-0.901-42.677-3.174-98.62
		c-1.802-44.566-30.238-101.302-36.285-119.444c-6.056-18.147,0-17.389-10.589-9.831c-23.537,16.824-21.16,60.484-21.931,77.861
		C237.022,102.292,239.295,164.278,239.295,186.2z"></path>
	<path class="st0" d="M321.697,238.912c0,0,8.816-9.958,12.604-9.958c3.784,0,10.071,6.383,8.556,3.357
		c-1.493-3.021,11.721-40.591,30.612-56.47c18.909-15.866,37.434-28.958,37.434-28.958s-11.329-30.995-13.61-49.138
		c-2.133-17.097,2.934-21.086-20.494-13.518c-23.437,7.549-49.791,11.947-61.151,30.908c-4.14,6.901-0.766,13.611-0.766,31
		C314.883,163.521,321.697,238.912,321.697,238.912z"></path>
	<path class="st0" d="M251.386,471.2c0,0-10.589,81.657-28.723,127.007c-18.151,45.35-110.375,192.024-110.375,198.084
		c0,0,34.779,7.549,45.351-9.091c10.589-16.636,84.683-140.613,93.748-170.842c9.069-30.246,30.237-108.873,30.237-108.873
		l-9.064-33.255L251.386,471.2z"></path>
</g>
</svg>
