<!--?xml version="1.0" encoding="utf-8"?-->
<!-- Generator: Adobe Illustrator 22.1.0, SVG Export Plug-In . SVG Version: 6.00 Build 0)  -->
<svg version="1.1" id="_x31_2" xmlns="http://www.w3.org/2000/svg" xmlns:xlink="http://www.w3.org/1999/xlink" x="0px" y="0px" viewBox="0 0 473.211 800" style="enable-background:new 0 0 473.211 800;" xml:space="preserve">
<style type="text/css">
	.st0{fill:white; stroke:black; stroke-width:2;}
</style>
<g>
	<path class="st0" d="M217.471,462.552c-11.022-7.349-14.7-4.589-13.775,5.504c1.184,13.097,27.544,49.585,46.817,53.255
		c19.28,3.664,44.07-13.773,48.662-21.113c4.592-7.355,5.511-27.547,5.511-27.547s-6.437,0.925-26.624,2.755
		C257.871,477.235,228.481,469.897,217.471,462.552z"></path>
	<path class="st0" d="M172.802,444.496c-11.04-4.928-45.002-18.352-69.787-40.39c-24.784-22.032-39.781-60.588-39.781-60.588
		s-6.425,6.118-11.943,11.622c-5.499,5.515-3.665,34.886,5.517,58.753c9.177,23.873,51.416,73.447,61.512,72.532
		c10.09-0.925,67.015-21.419,78.944-31.518C197.266,454.907,184.418,449.704,172.802,444.496z"></path>
	<path class="st0" d="M354.256,309.234c-30.289,22.952-80.791,76.202-88.128,88.13c-7.35,11.939-46.823,52.335-46.823,52.335
		c7.343,5.504,50.489,24.782,83.544,14.694l10.102-1.84c0,0,1.839,22.947,0,30.291c-1.839,7.355,58.753-31.211,73.447-47.729
		c14.688-16.528,43.144-56.929,42.226-77.127c-0.913-20.192-33.963-75.281-44.985-85.386
		C372.629,272.508,384.553,286.282,354.256,309.234z"></path>
	<path class="st0" d="M105.465,387.266c27.537,25.712,90.887,55.697,99.151,56.623c0,0,25.704-18.062,47.737-43.759
		c22.032-25.707,44.675-56.612,68.862-78.956c0,0-12.856-52.34-43.152-82.631c-30.302-30.291-77.118-70.692-84.463-92.724
		c-7.35-22.027-29.382,14.688-83.542,47.745c-54.174,33.046-56.006,94.559-55.087,110.167
		C55.884,319.339,77.916,361.564,105.465,387.266z"></path>
	<path class="st0" d="M419.439,113.686c-6.43,16.528-13.762,36.731-33.961,58.764c-20.199,22.032-62.128,106.799-64.572,117.819
		c-1.996,8.999,8.565,23.254,8.565,23.254s34.894-18.056,42.233-39.174c7.349-21.113,7.349-8.264,21.113,6.43
		c13.773,14.688,45.909,65.177,46.822,83.546c0,0,29.999-39.18,32.142-89.055c1.719-40.401-5.519-100.989-22.039-129.451
		C433.208,117.366,425.864,97.157,419.439,113.686z"></path>
	<path class="st0" d="M39.375,270.673c-13.478-50.795-11.948-63.348-9.195-82.615c2.759-19.288,17.447-39.481,12.856-39.481
		c-4.599,0-22.033,14.678-35.808,47.735c-19.576,47.01,12.849,125.776,33.974,154.243c0,0,7.634-7.904,10.404-16.227
		C52.823,330.653,45.926,295.424,39.375,270.673z"></path>
	<path class="st0" d="M379.053,165.402c3.666-4.584-46.829-58.14-56.931-74.663c-10.097-16.534,1.845-20.198-20.187-3.68
		c-22.032,16.528-77.491,36.435-85.073,42.849c-11.943,10.099-7.956,14.075-7.956,14.075c1.832,11.934,37.023,44.076,59.054,65.183
		c22.033,21.118,43.762,49.279,47.742,64.268c0.995,3.76,19.287-46.211,42.535-77.428
		C368.315,182.47,375.382,169.986,379.053,165.402z"></path>
	<path class="st0" d="M116.488,90.739c-25.099,23.867-42.849,23.867-50.804,37.334C54.788,146.51,43.28,167.215,37.53,188.656
		c-10.103,37.646,9.176,77.127,9.176,77.127c8.265-24.788,23.255-62.428,62.426-85.994c32.109-19.325,42.231-32.137,48.662-35.806
		c6.424-3.669-16.647-34.569-17.441-55.084C139.427,65.026,138.199,70.076,116.488,90.739z"></path>
	<path class="st0" d="M224.198,118.275c7.791-3.891,23.878-12.853,29.376-14.688c5.518-1.829-23.865-15.915-34.269-42.23
		c-6.877-17.417-1.833-17.449-30.295,1.84c-28.458,19.278-33.974,40.39-33.974,40.39c0.925,10.099,10.43,19.304,15.923,33.052
		c1.215,3.051,11.318-10.099,21.414-7.344c10.103,2.755,9.183,8.571,9.183,8.571S207.074,126.846,224.198,118.275z"></path>
	<path class="st0" d="M357.625,116.435c15.609,14.694,27.545,40.395,31.217,34.278c6.008-10.02,26.925-42.531,26.925-42.531
		s-9.177-8.265-14.681-21.123c-5.517-12.854-11.023-37.329-22.033-24.782c-11.658,13.271-34.9,26.622-40.399,30.297
		C338.654,92.573,342.018,101.758,357.625,116.435z"></path>
	<path class="st0" d="M120.154,78.493c11.167-11.167,24.791-25.401,25.709-13.467c0.913,11.939,4.278,31.524,4.278,28.769
		c0-2.761,15.305-18.971,15.305-18.971s-12.244-16.217-21.427-28.155c-9.183-11.939-10.096-10.094-15.608-5.505
		c-5.505,4.579-14.386,13.467-30.894,22.641c-16.533,9.179-34.894,30.598-36.727,56.924c0,0,13.46-11.627,28.15-18.971
		C103.626,94.403,111.594,87.059,120.154,78.493z"></path>
	<path class="st0" d="M170.958,69.314l34.886-24.481c0,0-8.873-3.061-17.138-15.915c-8.264-12.854-8.879-23.561-18.971-14.387
		c-10.109,9.179-24.79,13.774-22.959,21.123C148.61,42.999,170.032,66.565,170.958,69.314z"></path>
	<path class="st0" d="M233.073,65.941c0,0,17.44,23.571,31.523,31.523c8.353,4.722,39.172-19.579,45.595-27.843
		c6.426-8.264-16.522-29.382-16.522-41.316s0.914-6.43-23.876,6.424C245.01,47.583,233.073,65.941,233.073,65.941z"></path>
	<path class="st0" d="M316.618,58.301c-0.298,5.203,4.899,14.683,14.687,26.31c2.444,2.897,24.785-6.726,35.808-16.83
		c11.016-10.093,9.183-20.198,6.423-32.126c-2.751-11.944-23.562,9.787-29.986,13.457C337.125,52.791,316.618,58.301,316.618,58.301
		z"></path>
	<path class="st0" d="M346,40.239c0,0-9.177-7.339-12.856-24.787c-3.673-17.438-11.627-0.92-17.132,3.68
		c-8.447,7.037-6.74,3.67-14.688,9.787l12.231,22.651L346,40.239z"></path>
	<path class="st0" d="M220.533,41.772c0,6.435,7.345,17.136,7.345,17.136l20.199-18.965c0,0-7.653-3.368-18.669-18.067
		C218.385,7.198,218.385-3.826,210.122,5.358c-8.258,9.173-18.361,15.608-18.361,15.608l17.145,19.58
		C208.906,40.546,220.533,35.343,220.533,41.772z"></path>
	<path class="st0" d="M282.654,18.206c3.673-5.509-3.671-4.584-9.19-13.773c-5.504-9.179-20.797,20.504-30.9,21.425l12.548,7.957
		C255.112,33.815,278.983,23.711,282.654,18.206z"></path>
	<path class="st0" d="M225.731,518.551c-5.506-2.744-33.969-33.051-33.056-42.23c0.925-9.174-13.762,0.914-13.762,0.914
		c8.263,12.859,3.671,65.188-0.92,91.821c-4.592,26.617-24.791,193.708-24.791,217.57c0,23.867,36.728,2.76,36.728,2.76
		s23.865-223.09,29.375-240.539C224.803,531.41,231.24,521.311,225.731,518.551z"></path>
</g>
</svg>
