<!--?xml version="1.0" encoding="utf-8"?-->
<!-- Generator: Adobe Illustrator 22.1.0, SVG Export Plug-In . SVG Version: 6.00 Build 0)  -->
<svg version="1.1" id="_x31_1" xmlns="http://www.w3.org/2000/svg" xmlns:xlink="http://www.w3.org/1999/xlink" x="0px" y="0px" viewBox="0 0 651.154 800" style="enable-background:new 0 0 651.154 800;" xml:space="preserve">
<style type="text/css">
	.st0{fill:white; stroke:black; stroke-width:2;}
</style>
<g>
	<path class="st0" d="M350.053,405.181c21.8,28.274,27.53,43.21,30.19,64.931c2.796,22.797,32.979,5.956,32.979,5.956
		c52.636-27.372,66.743-33.034,109.834-95.829c43.09-62.795,45.546-82.49,38.161-153.892
		c-7.385-71.416-52.932-123.127-98.479-134.206c-45.564-11.074-61.568-7.383-67.725-19.695c-3.816-7.631,2.062-3.235-8.614,13.551
		c-8.623,13.537-70.175,36.932-88.642,62.781c-18.467,25.854-24.914,52.167-24.914,52.167s63.536,85.611,64.315,110.341
		c1.24,39.395-9.387,68.263-13.077,75.646C320.391,394.319,340.283,392.528,350.053,405.181z"></path>
	<path class="st0" d="M366.704,459.032c-10.161-23.091-23.16-53.594-51.243-57.916c-29.257-4.511-65.959,4.06-95.26,7.443
		c-32.014,3.678-82.299-1.045-102.185-20.929c-6.157-6.158-16.548,14.871-24.618,29.54c-6.531,11.87-19.701,8.621-19.701,8.621
		c-6.492-9.385-9.848-14.77-11.087-3.701c-1.551,13.96,3.696,24.629,24.618,52.945c20.934,28.316,103.458,91.451,161.28,93.574
		c41.182,1.505,66.744-14.766,93.825-35.694c17.282-13.353,25.896-27.663,28.884-34.488
		C376.721,490.105,379.715,488.619,366.704,459.032z"></path>
	<path class="st0" d="M107.915,371.494c2.458-9.85,8.774,13.582,37.592,21.044c32.584,8.436,11.903-2.444,11.903-2.444
		c-12.315-14.784-36.944-30.792-54.166-46.796c-17.233-16.013-61.305-37.07-86.186-86.181
		C5.436,234.185,2.287,215.259,2.287,215.259s-4.95,46.455,12.278,94.471c17.243,48.02,62.822,97.586,66.519,101.292
		C84.767,414.704,105.455,381.343,107.915,371.494z"></path>
	<path class="st0" d="M126.163,343.421c13.543,24.62,65.713,56.508,65.713,56.508c16.006,3.701,75.45-10.098,97.267-9.836
		c30.019,0.35,26.122-12.901,32.136-34.746c4.978-18.084,9.123-56.848-19.826-94.535c-40.361-52.563-92.755-117.779-135.435-139.126
		c-18.449-9.214-33.23-4.916-33.23-4.916s-12.32-18.466-23.385-8.621c-11.087,9.85-4.934,100.951-4.934,126.805
		C104.468,260.812,112.621,318.792,126.163,343.421z"></path>
	<path class="st0" d="M508.284,527.972c49.247-5.735,68.269-23.888,88.638-50.478c24.749-32.316,50.014-26.696,19.699-39.39
		c-22.37-9.376-68.943,1.234-96.028,12.317c-34.598,14.14-48.561,1.933-58.267,10.264c-8.617,7.383-37.18,23.805-61.036,29.421
		c0,0,17.546,11.926,31.906,21.868C446.146,520.948,480.942,531.166,508.284,527.972z"></path>
	<path class="st0" d="M617.461,432.553c0,0,26.253,9.242,17.627,20.326c-8.608,11.083-18.466,14.775-44.324,49.249
		c-25.84,34.474-96.028,40.619-124.347,31.998l-51.084-23.667c0,0,29.47,34.387,78.181,50.759
		c34.969,11.751,91.093-1.224,123.108-27.092c32.009-25.844,35.403-84.354,31.713-96.661
		C644.634,425.157,617.461,432.553,617.461,432.553z"></path>
	<path class="st0" d="M604.827,202.348c-22.168,28.316-14.009,52.549-28.78,91.934c-14.776,39.404-50.53,112.224-91.154,146.275
		l-9.919,11.645c0,0,23.467-9.169,59.161-33.798c45.552-41.871,83.719-78.799,99.718-160.055
		c16.009-81.252-14.76-131.73-11.07-121.88C626.48,146.315,626.984,174.028,604.827,202.348z"></path>
	<path class="st0" d="M573.536,262.05c0,0,6.153-18.471,9.843-33.25c3.701-14.775,12.321-27.083,28.32-52.94
		c16.005-25.854,2.467-56.623-2.462-66.477c-4.928-9.85-27.086-27.078-27.086-27.078s-7.391,22.157-18.466,28.307
		c-11.086,6.158-26.236,22.249-26.236,22.249C554.68,155.023,578.461,236.192,573.536,262.05z"></path>
	<path class="st0" d="M429.489,76.141c19.7-1.229,65.247,11.079,98.49,44.32c6.157-32.017-56.633-103.409-65.241-109.573
		c-8.62-6.154,1.222,7.387-7.386,19.7C446.733,42.9,429.489,76.141,429.489,76.141z"></path>
	<path class="st0" d="M53.87,288.672c19.701,20.933,41.424,42.455,49.133,38.603c1.398-0.704-13.312-68.926-10.845-91.083
		c2.463-22.167-0.811-59.513-0.811-59.513c-11.087-7.383-43.513-3.282-54.588-3.282c-11.091,0-17.243,4.93-27.085-3.691
		c-9.848-8.612-7.386,20.929,6.162,55.407C29.373,259.583,34.171,267.739,53.87,288.672z"></path>
	<path class="st0" d="M229.329,158.838l33.693,30.166c0,0,18.741-34.074,28.583-51.302c9.848-17.242,49.236-34.484,73.867-45.562
		c24.622-11.074,15.461-21.039,11.086-28.311c-5.132-8.497-28.325-11.079-39.4-20.929c-11.082-9.845-0.905-21.476-16.004-16.003
		c-17.419,6.301-44.324,39.395-52.95,46.782C259.591,81.067,226.868,130.523,229.329,158.838z"></path>
	<path class="st0" d="M383.038,56.359l11.974,0.074c0,0,3.701,11.084,11.087,13.551c7.391,2.462,16.005,3.696,17.244,0
		c1.217-3.691,17.94-26.259,24.618-43.086c3.048-7.678-18.472-22.162-25.857-24.624c-7.397-2.463-19.7,12.312-27.092,22.162
		c-7.385,9.85-26.01,24.211-26.01,24.211C380.076,49.869,383.038,56.359,383.038,56.359z"></path>
	<path class="st0" d="M221.835,149.596c9.848-22.162,13.144-45.134,4.518-67.292c-8.614-22.176-7.385-27.096-7.385-30.792
		c0-3.691-11.086,9.859-14.771,34.484c-3.701,24.616-7.151,42.653-7.151,42.653L221.835,149.596z"></path>
	<path class="st0" d="M168.272,111.812c7.385,4.92,21.762,13.334,21.762,13.334c0-13.536-25.242-53.93-31.401-67.471
		c-6.151-13.551-6.151,1.234-15.999,14.77c-9.847,13.551-16.471,25.325-16.471,25.325l12.633,10.535
		C138.796,108.305,160.887,106.888,168.272,111.812z"></path>
	<path class="st0" d="M201.735,64.694l-34.488-9.486c0,0,22.172,35.703,25.863,47.652L201.735,64.694z"></path>
	<path class="st0" d="M239.922,97.977c0.005,0.097-0.048,0.244-0.028,0.327C240.487,100.674,240.439,100.182,239.922,97.977z"></path>
	<path class="st0" d="M239.922,97.977c-0.25-5.68,27.054-35.376,27.054-35.376s-15.995-7.392-30.772-12.313
		c-14.776-4.929-13.57,0.12-7.396,13.542C234.214,75.575,238.616,92.407,239.922,97.977z"></path>
	<path class="st0" d="M393.378,495.145c-4.934-1.634-27.907,32.021-27.907,32.021l19.694,268.375L426.209,798l-23.805-280.693
		C402.404,517.307,398.303,496.793,393.378,495.145z"></path>
</g>
</svg>
