<svg height="48" viewBox="0 0 512 512" width="48" xmlns="http://www.w3.org/2000/svg"><g fill="#fff"><path d="m133.977 245.743c4.662 1.718 9.756 2.564 15.006 2.315 7.873-.355 15.159-3.118 21.05-7.512 5.9-4.4 10.456-10.425 13.043-17.428 1.73-4.668 2.564-9.759 2.319-15.007-.355-7.873-3.119-15.162-7.513-21.05-4.398-5.894-10.432-10.457-17.431-13.052-4.662-1.718-9.757-2.558-15-2.315-7.877.361-15.162 3.118-21.056 7.513-5.894 4.406-10.454 10.432-13.043 17.434-1.73 4.662-2.565 9.76-2.319 15 .358 7.88 3.118 15.162 7.516 21.057 4.395 5.887 10.432 10.456 17.428 13.045zm-6.921-48.126c2.368-3.883 5.854-7.064 9.986-9.037 2.755-1.307 5.798-2.117 9.084-2.266 4.92-.224 9.458 1.033 13.351 3.411 3.884 2.365 7.061 5.85 9.034 9.984 1.317 2.751 2.12 5.788 2.269 9.081.224 4.923-1.036 9.455-3.405 13.351-2.372 3.89-5.856 7.058-9.99 9.038-2.754 1.313-5.794 2.116-9.078 2.265-4.926.224-9.464-1.045-13.36-3.404-3.881-2.378-7.058-5.857-9.031-9.99-1.316-2.752-2.119-5.795-2.268-9.075-.221-4.93 1.04-9.467 3.408-13.358z"/><path d="m297.863 404.415c.766 16.575 14.829 29.397 31.414 28.625 16.575-.759 29.396-14.826 28.628-31.407-.766-16.582-14.83-29.403-31.408-28.631-16.581.765-29.403 14.826-28.634 31.413z"/><path d="m240.495 392.16c-14.873.691-26.375 13.308-25.687 28.183s13.307 26.378 28.18 25.687c14.872-.691 26.375-13.307 25.687-28.177-.688-14.876-13.308-26.377-28.18-25.693z"/><path d="m158.858 406.301c13.248-.61 23.49-11.845 22.877-25.096-.612-13.245-11.847-23.49-25.096-22.873-13.251.616-23.49 11.85-22.88 25.096.614 13.251 11.848 23.49 25.099 22.873z"/><path d="m100.317 314.906c.479 10.363 9.265 18.367 19.631 17.888 10.357-.473 18.377-9.261 17.898-19.624s-9.274-18.368-19.634-17.894c-10.364.484-18.375 9.26-17.895 19.63z"/><path d="m281.761 259.872-.2-.622-30.75-21.686-.647.019c-15.48.342-31.808 10.052-42.604 25.369-10.239 14.527-15.147 29.534-19.896 44.049-3.24 9.896-6.588 20.141-11.623 30.224-4.167 8.353-6.656 11.466-6.663 11.478l-2.549 3.025 2.813 1.189c13.083 5.521 31.846 4.021 51.471-4.089 20.617-8.515 38.758-22.843 51.075-40.308 10.802-15.318 14.465-33.953 9.573-48.648zm-27.567 54.723c-.564.454-1.161.946-1.777 1.506-6.881 6.187-14.699 4.954-8.446-6.573 6.264-11.527-1.995-13.855-9.93-5.77-9.952 10.139-13.239 3.541-10.995-1.631 2.238-5.16 8.947-12.698 4.559-16.4-2.645-2.228-6.937 2.116-13.678 8.134-3.858 3.454-11.782 3.554-6.909-10.114 2.363-5.154 5.138-10.182 8.608-15.112 7.529-10.686 18.981-17.913 29.926-18.909l26.335 18.56c2.744 10.644-.221 23.851-7.758 34.55-2.902 4.096-6.241 8.043-9.935 11.759z"/><path d="m268.634 229.883 14.185 9.99c4.36 3.088 10.451 3.318 16.821.666 6.37-2.664 12.476-7.985 16.886-14.72l19.973-30.516-43.905-30.965-22.033 29.066c-4.871 6.417-7.824 13.955-8.192 20.851-.367 6.896 1.904 12.547 6.265 15.628z"/><path d="m437.779 35.316c8.269-12.635 8.325-27.063.146-32.838l-.108-.062c-8.182-5.77-21.747-.872-30.869 11.166l-106.518 140.429 43.162 30.43z"/><path d="m486.476 270.708-.093-2.21c-.754-16.319-3.79-30.809-9.022-43.071-4.901-11.514-11.688-21.006-20.179-28.22-5.256-4.481-11.11-8.017-17.399-10.5-7.009-2.764-14.368-4.17-21.875-4.17-.902 0-1.792.019-2.689.062-7.186.336-14.06 1.948-20.43 4.798-6.551 2.95-12.131 7.008-16.582 12.069-9.405 10.699-22.086 18.367-36.175 22.301l-9.508 14.521c-2.847 4.351-6.245 8.185-9.918 11.584.918-.025 1.836-.025 2.76-.068 27.274-1.264 52.868-13.314 70.218-33.057 2.207-2.508 5.21-4.668 8.683-6.236 3.666-1.643 7.82-2.608 12.028-2.794l1.618-.031c5.266 0 10.392 1.126 15.24 3.348 6.016 2.776 11.304 7.114 15.719 12.903 3.38 4.444 6.215 9.703 8.428 15.635 3.398 9.088 5.408 19.849 5.972 31.998l.078 2.03c1.366 41.708-9.268 82.42-30.75 117.724-21.056 34.562-51.231 61.992-87.266 79.314-24.906 11.969-51.717 18.704-79.688 20.004-3.262.149-6.508.224-9.735.224-38.058 0-75.334-10.463-107.796-30.268-34.513-21.056-61.946-51.393-79.336-87.742-11.988-25.034-18.722-51.934-20.02-79.937-2.094-45.56 10.643-89.46 36.834-126.96 25.155-36 62.068-64.146 103.934-79.252 2.312-.834 5.141-1.357 7.955-1.475.516-.025 1.039-.038 1.565-.038 3.283 0 6.601.486 9.585 1.407 3.622 1.096 6.847 2.838 9.33 5.041 1.734 1.544 3.125 3.293 4.258 5.353 1.702 3.156 2.633 6.803 2.848 11.16.142 3.124-.109 6.541-.757 10.158-.407 2.334-.914 4.78-1.488 7.544-.554 2.67-1.136 5.478-1.665 8.44-.884 5.004-1.855 11.696-1.512 19.134.934 20.253 7.805 39.517 19.874 55.706 1.254 1.68 2.577 3.292 3.924 4.886.719-9.124 4.12-18.399 9.628-26.726-.93-1.631-1.976-3.187-2.788-4.892-4.506-9.411-7.036-19.525-7.525-30.044-.187-3.996.19-8.446 1.189-14.017.426-2.44.949-4.973 1.565-7.93.532-2.57 1.086-5.259 1.587-8.06.94-5.291 1.304-10.425 1.08-15.28-.376-8.639-2.769-16.712-6.924-23.346-3.759-6.056-9.146-11.191-15.573-14.845-3.796-2.178-7.976-3.865-12.421-5.022-4.624-1.195-9.435-1.805-14.3-1.805-.853 0-1.702.019-2.54.056-5.262.256-10.226 1.208-14.751 2.839-46.975 16.943-86.756 47.286-115.046 87.749-29.166 41.69-43.336 90.549-40.98 141.295 2.126 46.158 17.792 90.082 45.309 127.022 26.851 36.013 63.241 63.256 105.229 78.773 25.525 9.43 52.336 14.21 79.685 14.21 3.6 0 7.214-.081 10.848-.255 31.087-1.438 60.913-8.926 88.644-22.258 26.736-12.846 50.478-30.598 70.567-52.762 41.071-45.262 62.572-104.224 60.549-166.017z"/></g></svg>